%TF.GenerationSoftware,KiCad,Pcbnew,(5.1.9)-1*%
%TF.CreationDate,2021-03-19T17:13:39+07:00*%
%TF.ProjectId,notebook,6e6f7465-626f-46f6-9b2e-6b696361645f,rev?*%
%TF.SameCoordinates,Original*%
%TF.FileFunction,Soldermask,Top*%
%TF.FilePolarity,Negative*%
%FSLAX46Y46*%
G04 Gerber Fmt 4.6, Leading zero omitted, Abs format (unit mm)*
G04 Created by KiCad (PCBNEW (5.1.9)-1) date 2021-03-19 17:13:39*
%MOMM*%
%LPD*%
G01*
G04 APERTURE LIST*
%ADD10R,1.550000X1.300000*%
%ADD11R,3.150000X1.000000*%
%ADD12R,1.000000X3.000000*%
%ADD13R,3.600000X2.680000*%
%ADD14R,2.000000X0.610000*%
%ADD15R,5.400000X2.900000*%
%ADD16R,1.800000X1.000000*%
%ADD17R,1.200000X1.400000*%
%ADD18R,10.800000X9.400000*%
%ADD19R,1.100000X4.600000*%
%ADD20C,6.000000*%
%ADD21R,0.900000X1.200000*%
%ADD22R,2.500000X1.800000*%
G04 APERTURE END LIST*
%TO.C,U1*%
G36*
G01*
X116400000Y-70400000D02*
X116400000Y-69075000D01*
G75*
G02*
X116475000Y-69000000I75000J0D01*
G01*
X116625000Y-69000000D01*
G75*
G02*
X116700000Y-69075000I0J-75000D01*
G01*
X116700000Y-70400000D01*
G75*
G02*
X116625000Y-70475000I-75000J0D01*
G01*
X116475000Y-70475000D01*
G75*
G02*
X116400000Y-70400000I0J75000D01*
G01*
G37*
G36*
G01*
X116900000Y-70400000D02*
X116900000Y-69075000D01*
G75*
G02*
X116975000Y-69000000I75000J0D01*
G01*
X117125000Y-69000000D01*
G75*
G02*
X117200000Y-69075000I0J-75000D01*
G01*
X117200000Y-70400000D01*
G75*
G02*
X117125000Y-70475000I-75000J0D01*
G01*
X116975000Y-70475000D01*
G75*
G02*
X116900000Y-70400000I0J75000D01*
G01*
G37*
G36*
G01*
X117400000Y-70400000D02*
X117400000Y-69075000D01*
G75*
G02*
X117475000Y-69000000I75000J0D01*
G01*
X117625000Y-69000000D01*
G75*
G02*
X117700000Y-69075000I0J-75000D01*
G01*
X117700000Y-70400000D01*
G75*
G02*
X117625000Y-70475000I-75000J0D01*
G01*
X117475000Y-70475000D01*
G75*
G02*
X117400000Y-70400000I0J75000D01*
G01*
G37*
G36*
G01*
X117900000Y-70400000D02*
X117900000Y-69075000D01*
G75*
G02*
X117975000Y-69000000I75000J0D01*
G01*
X118125000Y-69000000D01*
G75*
G02*
X118200000Y-69075000I0J-75000D01*
G01*
X118200000Y-70400000D01*
G75*
G02*
X118125000Y-70475000I-75000J0D01*
G01*
X117975000Y-70475000D01*
G75*
G02*
X117900000Y-70400000I0J75000D01*
G01*
G37*
G36*
G01*
X118400000Y-70400000D02*
X118400000Y-69075000D01*
G75*
G02*
X118475000Y-69000000I75000J0D01*
G01*
X118625000Y-69000000D01*
G75*
G02*
X118700000Y-69075000I0J-75000D01*
G01*
X118700000Y-70400000D01*
G75*
G02*
X118625000Y-70475000I-75000J0D01*
G01*
X118475000Y-70475000D01*
G75*
G02*
X118400000Y-70400000I0J75000D01*
G01*
G37*
G36*
G01*
X118900000Y-70400000D02*
X118900000Y-69075000D01*
G75*
G02*
X118975000Y-69000000I75000J0D01*
G01*
X119125000Y-69000000D01*
G75*
G02*
X119200000Y-69075000I0J-75000D01*
G01*
X119200000Y-70400000D01*
G75*
G02*
X119125000Y-70475000I-75000J0D01*
G01*
X118975000Y-70475000D01*
G75*
G02*
X118900000Y-70400000I0J75000D01*
G01*
G37*
G36*
G01*
X119400000Y-70400000D02*
X119400000Y-69075000D01*
G75*
G02*
X119475000Y-69000000I75000J0D01*
G01*
X119625000Y-69000000D01*
G75*
G02*
X119700000Y-69075000I0J-75000D01*
G01*
X119700000Y-70400000D01*
G75*
G02*
X119625000Y-70475000I-75000J0D01*
G01*
X119475000Y-70475000D01*
G75*
G02*
X119400000Y-70400000I0J75000D01*
G01*
G37*
G36*
G01*
X119900000Y-70400000D02*
X119900000Y-69075000D01*
G75*
G02*
X119975000Y-69000000I75000J0D01*
G01*
X120125000Y-69000000D01*
G75*
G02*
X120200000Y-69075000I0J-75000D01*
G01*
X120200000Y-70400000D01*
G75*
G02*
X120125000Y-70475000I-75000J0D01*
G01*
X119975000Y-70475000D01*
G75*
G02*
X119900000Y-70400000I0J75000D01*
G01*
G37*
G36*
G01*
X120400000Y-70400000D02*
X120400000Y-69075000D01*
G75*
G02*
X120475000Y-69000000I75000J0D01*
G01*
X120625000Y-69000000D01*
G75*
G02*
X120700000Y-69075000I0J-75000D01*
G01*
X120700000Y-70400000D01*
G75*
G02*
X120625000Y-70475000I-75000J0D01*
G01*
X120475000Y-70475000D01*
G75*
G02*
X120400000Y-70400000I0J75000D01*
G01*
G37*
G36*
G01*
X120900000Y-70400000D02*
X120900000Y-69075000D01*
G75*
G02*
X120975000Y-69000000I75000J0D01*
G01*
X121125000Y-69000000D01*
G75*
G02*
X121200000Y-69075000I0J-75000D01*
G01*
X121200000Y-70400000D01*
G75*
G02*
X121125000Y-70475000I-75000J0D01*
G01*
X120975000Y-70475000D01*
G75*
G02*
X120900000Y-70400000I0J75000D01*
G01*
G37*
G36*
G01*
X121400000Y-70400000D02*
X121400000Y-69075000D01*
G75*
G02*
X121475000Y-69000000I75000J0D01*
G01*
X121625000Y-69000000D01*
G75*
G02*
X121700000Y-69075000I0J-75000D01*
G01*
X121700000Y-70400000D01*
G75*
G02*
X121625000Y-70475000I-75000J0D01*
G01*
X121475000Y-70475000D01*
G75*
G02*
X121400000Y-70400000I0J75000D01*
G01*
G37*
G36*
G01*
X121900000Y-70400000D02*
X121900000Y-69075000D01*
G75*
G02*
X121975000Y-69000000I75000J0D01*
G01*
X122125000Y-69000000D01*
G75*
G02*
X122200000Y-69075000I0J-75000D01*
G01*
X122200000Y-70400000D01*
G75*
G02*
X122125000Y-70475000I-75000J0D01*
G01*
X121975000Y-70475000D01*
G75*
G02*
X121900000Y-70400000I0J75000D01*
G01*
G37*
G36*
G01*
X122400000Y-70400000D02*
X122400000Y-69075000D01*
G75*
G02*
X122475000Y-69000000I75000J0D01*
G01*
X122625000Y-69000000D01*
G75*
G02*
X122700000Y-69075000I0J-75000D01*
G01*
X122700000Y-70400000D01*
G75*
G02*
X122625000Y-70475000I-75000J0D01*
G01*
X122475000Y-70475000D01*
G75*
G02*
X122400000Y-70400000I0J75000D01*
G01*
G37*
G36*
G01*
X122900000Y-70400000D02*
X122900000Y-69075000D01*
G75*
G02*
X122975000Y-69000000I75000J0D01*
G01*
X123125000Y-69000000D01*
G75*
G02*
X123200000Y-69075000I0J-75000D01*
G01*
X123200000Y-70400000D01*
G75*
G02*
X123125000Y-70475000I-75000J0D01*
G01*
X122975000Y-70475000D01*
G75*
G02*
X122900000Y-70400000I0J75000D01*
G01*
G37*
G36*
G01*
X123400000Y-70400000D02*
X123400000Y-69075000D01*
G75*
G02*
X123475000Y-69000000I75000J0D01*
G01*
X123625000Y-69000000D01*
G75*
G02*
X123700000Y-69075000I0J-75000D01*
G01*
X123700000Y-70400000D01*
G75*
G02*
X123625000Y-70475000I-75000J0D01*
G01*
X123475000Y-70475000D01*
G75*
G02*
X123400000Y-70400000I0J75000D01*
G01*
G37*
G36*
G01*
X123900000Y-70400000D02*
X123900000Y-69075000D01*
G75*
G02*
X123975000Y-69000000I75000J0D01*
G01*
X124125000Y-69000000D01*
G75*
G02*
X124200000Y-69075000I0J-75000D01*
G01*
X124200000Y-70400000D01*
G75*
G02*
X124125000Y-70475000I-75000J0D01*
G01*
X123975000Y-70475000D01*
G75*
G02*
X123900000Y-70400000I0J75000D01*
G01*
G37*
G36*
G01*
X124400000Y-70400000D02*
X124400000Y-69075000D01*
G75*
G02*
X124475000Y-69000000I75000J0D01*
G01*
X124625000Y-69000000D01*
G75*
G02*
X124700000Y-69075000I0J-75000D01*
G01*
X124700000Y-70400000D01*
G75*
G02*
X124625000Y-70475000I-75000J0D01*
G01*
X124475000Y-70475000D01*
G75*
G02*
X124400000Y-70400000I0J75000D01*
G01*
G37*
G36*
G01*
X124900000Y-70400000D02*
X124900000Y-69075000D01*
G75*
G02*
X124975000Y-69000000I75000J0D01*
G01*
X125125000Y-69000000D01*
G75*
G02*
X125200000Y-69075000I0J-75000D01*
G01*
X125200000Y-70400000D01*
G75*
G02*
X125125000Y-70475000I-75000J0D01*
G01*
X124975000Y-70475000D01*
G75*
G02*
X124900000Y-70400000I0J75000D01*
G01*
G37*
G36*
G01*
X125400000Y-70400000D02*
X125400000Y-69075000D01*
G75*
G02*
X125475000Y-69000000I75000J0D01*
G01*
X125625000Y-69000000D01*
G75*
G02*
X125700000Y-69075000I0J-75000D01*
G01*
X125700000Y-70400000D01*
G75*
G02*
X125625000Y-70475000I-75000J0D01*
G01*
X125475000Y-70475000D01*
G75*
G02*
X125400000Y-70400000I0J75000D01*
G01*
G37*
G36*
G01*
X125900000Y-70400000D02*
X125900000Y-69075000D01*
G75*
G02*
X125975000Y-69000000I75000J0D01*
G01*
X126125000Y-69000000D01*
G75*
G02*
X126200000Y-69075000I0J-75000D01*
G01*
X126200000Y-70400000D01*
G75*
G02*
X126125000Y-70475000I-75000J0D01*
G01*
X125975000Y-70475000D01*
G75*
G02*
X125900000Y-70400000I0J75000D01*
G01*
G37*
G36*
G01*
X126400000Y-70400000D02*
X126400000Y-69075000D01*
G75*
G02*
X126475000Y-69000000I75000J0D01*
G01*
X126625000Y-69000000D01*
G75*
G02*
X126700000Y-69075000I0J-75000D01*
G01*
X126700000Y-70400000D01*
G75*
G02*
X126625000Y-70475000I-75000J0D01*
G01*
X126475000Y-70475000D01*
G75*
G02*
X126400000Y-70400000I0J75000D01*
G01*
G37*
G36*
G01*
X126900000Y-70400000D02*
X126900000Y-69075000D01*
G75*
G02*
X126975000Y-69000000I75000J0D01*
G01*
X127125000Y-69000000D01*
G75*
G02*
X127200000Y-69075000I0J-75000D01*
G01*
X127200000Y-70400000D01*
G75*
G02*
X127125000Y-70475000I-75000J0D01*
G01*
X126975000Y-70475000D01*
G75*
G02*
X126900000Y-70400000I0J75000D01*
G01*
G37*
G36*
G01*
X127400000Y-70400000D02*
X127400000Y-69075000D01*
G75*
G02*
X127475000Y-69000000I75000J0D01*
G01*
X127625000Y-69000000D01*
G75*
G02*
X127700000Y-69075000I0J-75000D01*
G01*
X127700000Y-70400000D01*
G75*
G02*
X127625000Y-70475000I-75000J0D01*
G01*
X127475000Y-70475000D01*
G75*
G02*
X127400000Y-70400000I0J75000D01*
G01*
G37*
G36*
G01*
X127900000Y-70400000D02*
X127900000Y-69075000D01*
G75*
G02*
X127975000Y-69000000I75000J0D01*
G01*
X128125000Y-69000000D01*
G75*
G02*
X128200000Y-69075000I0J-75000D01*
G01*
X128200000Y-70400000D01*
G75*
G02*
X128125000Y-70475000I-75000J0D01*
G01*
X127975000Y-70475000D01*
G75*
G02*
X127900000Y-70400000I0J75000D01*
G01*
G37*
G36*
G01*
X128400000Y-70400000D02*
X128400000Y-69075000D01*
G75*
G02*
X128475000Y-69000000I75000J0D01*
G01*
X128625000Y-69000000D01*
G75*
G02*
X128700000Y-69075000I0J-75000D01*
G01*
X128700000Y-70400000D01*
G75*
G02*
X128625000Y-70475000I-75000J0D01*
G01*
X128475000Y-70475000D01*
G75*
G02*
X128400000Y-70400000I0J75000D01*
G01*
G37*
G36*
G01*
X128900000Y-70400000D02*
X128900000Y-69075000D01*
G75*
G02*
X128975000Y-69000000I75000J0D01*
G01*
X129125000Y-69000000D01*
G75*
G02*
X129200000Y-69075000I0J-75000D01*
G01*
X129200000Y-70400000D01*
G75*
G02*
X129125000Y-70475000I-75000J0D01*
G01*
X128975000Y-70475000D01*
G75*
G02*
X128900000Y-70400000I0J75000D01*
G01*
G37*
G36*
G01*
X129400000Y-70400000D02*
X129400000Y-69075000D01*
G75*
G02*
X129475000Y-69000000I75000J0D01*
G01*
X129625000Y-69000000D01*
G75*
G02*
X129700000Y-69075000I0J-75000D01*
G01*
X129700000Y-70400000D01*
G75*
G02*
X129625000Y-70475000I-75000J0D01*
G01*
X129475000Y-70475000D01*
G75*
G02*
X129400000Y-70400000I0J75000D01*
G01*
G37*
G36*
G01*
X129900000Y-70400000D02*
X129900000Y-69075000D01*
G75*
G02*
X129975000Y-69000000I75000J0D01*
G01*
X130125000Y-69000000D01*
G75*
G02*
X130200000Y-69075000I0J-75000D01*
G01*
X130200000Y-70400000D01*
G75*
G02*
X130125000Y-70475000I-75000J0D01*
G01*
X129975000Y-70475000D01*
G75*
G02*
X129900000Y-70400000I0J75000D01*
G01*
G37*
G36*
G01*
X130400000Y-70400000D02*
X130400000Y-69075000D01*
G75*
G02*
X130475000Y-69000000I75000J0D01*
G01*
X130625000Y-69000000D01*
G75*
G02*
X130700000Y-69075000I0J-75000D01*
G01*
X130700000Y-70400000D01*
G75*
G02*
X130625000Y-70475000I-75000J0D01*
G01*
X130475000Y-70475000D01*
G75*
G02*
X130400000Y-70400000I0J75000D01*
G01*
G37*
G36*
G01*
X130900000Y-70400000D02*
X130900000Y-69075000D01*
G75*
G02*
X130975000Y-69000000I75000J0D01*
G01*
X131125000Y-69000000D01*
G75*
G02*
X131200000Y-69075000I0J-75000D01*
G01*
X131200000Y-70400000D01*
G75*
G02*
X131125000Y-70475000I-75000J0D01*
G01*
X130975000Y-70475000D01*
G75*
G02*
X130900000Y-70400000I0J75000D01*
G01*
G37*
G36*
G01*
X131400000Y-70400000D02*
X131400000Y-69075000D01*
G75*
G02*
X131475000Y-69000000I75000J0D01*
G01*
X131625000Y-69000000D01*
G75*
G02*
X131700000Y-69075000I0J-75000D01*
G01*
X131700000Y-70400000D01*
G75*
G02*
X131625000Y-70475000I-75000J0D01*
G01*
X131475000Y-70475000D01*
G75*
G02*
X131400000Y-70400000I0J75000D01*
G01*
G37*
G36*
G01*
X131900000Y-70400000D02*
X131900000Y-69075000D01*
G75*
G02*
X131975000Y-69000000I75000J0D01*
G01*
X132125000Y-69000000D01*
G75*
G02*
X132200000Y-69075000I0J-75000D01*
G01*
X132200000Y-70400000D01*
G75*
G02*
X132125000Y-70475000I-75000J0D01*
G01*
X131975000Y-70475000D01*
G75*
G02*
X131900000Y-70400000I0J75000D01*
G01*
G37*
G36*
G01*
X132400000Y-70400000D02*
X132400000Y-69075000D01*
G75*
G02*
X132475000Y-69000000I75000J0D01*
G01*
X132625000Y-69000000D01*
G75*
G02*
X132700000Y-69075000I0J-75000D01*
G01*
X132700000Y-70400000D01*
G75*
G02*
X132625000Y-70475000I-75000J0D01*
G01*
X132475000Y-70475000D01*
G75*
G02*
X132400000Y-70400000I0J75000D01*
G01*
G37*
G36*
G01*
X132900000Y-70400000D02*
X132900000Y-69075000D01*
G75*
G02*
X132975000Y-69000000I75000J0D01*
G01*
X133125000Y-69000000D01*
G75*
G02*
X133200000Y-69075000I0J-75000D01*
G01*
X133200000Y-70400000D01*
G75*
G02*
X133125000Y-70475000I-75000J0D01*
G01*
X132975000Y-70475000D01*
G75*
G02*
X132900000Y-70400000I0J75000D01*
G01*
G37*
G36*
G01*
X133400000Y-70400000D02*
X133400000Y-69075000D01*
G75*
G02*
X133475000Y-69000000I75000J0D01*
G01*
X133625000Y-69000000D01*
G75*
G02*
X133700000Y-69075000I0J-75000D01*
G01*
X133700000Y-70400000D01*
G75*
G02*
X133625000Y-70475000I-75000J0D01*
G01*
X133475000Y-70475000D01*
G75*
G02*
X133400000Y-70400000I0J75000D01*
G01*
G37*
G36*
G01*
X133900000Y-70400000D02*
X133900000Y-69075000D01*
G75*
G02*
X133975000Y-69000000I75000J0D01*
G01*
X134125000Y-69000000D01*
G75*
G02*
X134200000Y-69075000I0J-75000D01*
G01*
X134200000Y-70400000D01*
G75*
G02*
X134125000Y-70475000I-75000J0D01*
G01*
X133975000Y-70475000D01*
G75*
G02*
X133900000Y-70400000I0J75000D01*
G01*
G37*
G36*
G01*
X135225000Y-71725000D02*
X135225000Y-71575000D01*
G75*
G02*
X135300000Y-71500000I75000J0D01*
G01*
X136625000Y-71500000D01*
G75*
G02*
X136700000Y-71575000I0J-75000D01*
G01*
X136700000Y-71725000D01*
G75*
G02*
X136625000Y-71800000I-75000J0D01*
G01*
X135300000Y-71800000D01*
G75*
G02*
X135225000Y-71725000I0J75000D01*
G01*
G37*
G36*
G01*
X135225000Y-72225000D02*
X135225000Y-72075000D01*
G75*
G02*
X135300000Y-72000000I75000J0D01*
G01*
X136625000Y-72000000D01*
G75*
G02*
X136700000Y-72075000I0J-75000D01*
G01*
X136700000Y-72225000D01*
G75*
G02*
X136625000Y-72300000I-75000J0D01*
G01*
X135300000Y-72300000D01*
G75*
G02*
X135225000Y-72225000I0J75000D01*
G01*
G37*
G36*
G01*
X135225000Y-72725000D02*
X135225000Y-72575000D01*
G75*
G02*
X135300000Y-72500000I75000J0D01*
G01*
X136625000Y-72500000D01*
G75*
G02*
X136700000Y-72575000I0J-75000D01*
G01*
X136700000Y-72725000D01*
G75*
G02*
X136625000Y-72800000I-75000J0D01*
G01*
X135300000Y-72800000D01*
G75*
G02*
X135225000Y-72725000I0J75000D01*
G01*
G37*
G36*
G01*
X135225000Y-73225000D02*
X135225000Y-73075000D01*
G75*
G02*
X135300000Y-73000000I75000J0D01*
G01*
X136625000Y-73000000D01*
G75*
G02*
X136700000Y-73075000I0J-75000D01*
G01*
X136700000Y-73225000D01*
G75*
G02*
X136625000Y-73300000I-75000J0D01*
G01*
X135300000Y-73300000D01*
G75*
G02*
X135225000Y-73225000I0J75000D01*
G01*
G37*
G36*
G01*
X135225000Y-73725000D02*
X135225000Y-73575000D01*
G75*
G02*
X135300000Y-73500000I75000J0D01*
G01*
X136625000Y-73500000D01*
G75*
G02*
X136700000Y-73575000I0J-75000D01*
G01*
X136700000Y-73725000D01*
G75*
G02*
X136625000Y-73800000I-75000J0D01*
G01*
X135300000Y-73800000D01*
G75*
G02*
X135225000Y-73725000I0J75000D01*
G01*
G37*
G36*
G01*
X135225000Y-74225000D02*
X135225000Y-74075000D01*
G75*
G02*
X135300000Y-74000000I75000J0D01*
G01*
X136625000Y-74000000D01*
G75*
G02*
X136700000Y-74075000I0J-75000D01*
G01*
X136700000Y-74225000D01*
G75*
G02*
X136625000Y-74300000I-75000J0D01*
G01*
X135300000Y-74300000D01*
G75*
G02*
X135225000Y-74225000I0J75000D01*
G01*
G37*
G36*
G01*
X135225000Y-74725000D02*
X135225000Y-74575000D01*
G75*
G02*
X135300000Y-74500000I75000J0D01*
G01*
X136625000Y-74500000D01*
G75*
G02*
X136700000Y-74575000I0J-75000D01*
G01*
X136700000Y-74725000D01*
G75*
G02*
X136625000Y-74800000I-75000J0D01*
G01*
X135300000Y-74800000D01*
G75*
G02*
X135225000Y-74725000I0J75000D01*
G01*
G37*
G36*
G01*
X135225000Y-75225000D02*
X135225000Y-75075000D01*
G75*
G02*
X135300000Y-75000000I75000J0D01*
G01*
X136625000Y-75000000D01*
G75*
G02*
X136700000Y-75075000I0J-75000D01*
G01*
X136700000Y-75225000D01*
G75*
G02*
X136625000Y-75300000I-75000J0D01*
G01*
X135300000Y-75300000D01*
G75*
G02*
X135225000Y-75225000I0J75000D01*
G01*
G37*
G36*
G01*
X135225000Y-75725000D02*
X135225000Y-75575000D01*
G75*
G02*
X135300000Y-75500000I75000J0D01*
G01*
X136625000Y-75500000D01*
G75*
G02*
X136700000Y-75575000I0J-75000D01*
G01*
X136700000Y-75725000D01*
G75*
G02*
X136625000Y-75800000I-75000J0D01*
G01*
X135300000Y-75800000D01*
G75*
G02*
X135225000Y-75725000I0J75000D01*
G01*
G37*
G36*
G01*
X135225000Y-76225000D02*
X135225000Y-76075000D01*
G75*
G02*
X135300000Y-76000000I75000J0D01*
G01*
X136625000Y-76000000D01*
G75*
G02*
X136700000Y-76075000I0J-75000D01*
G01*
X136700000Y-76225000D01*
G75*
G02*
X136625000Y-76300000I-75000J0D01*
G01*
X135300000Y-76300000D01*
G75*
G02*
X135225000Y-76225000I0J75000D01*
G01*
G37*
G36*
G01*
X135225000Y-76725000D02*
X135225000Y-76575000D01*
G75*
G02*
X135300000Y-76500000I75000J0D01*
G01*
X136625000Y-76500000D01*
G75*
G02*
X136700000Y-76575000I0J-75000D01*
G01*
X136700000Y-76725000D01*
G75*
G02*
X136625000Y-76800000I-75000J0D01*
G01*
X135300000Y-76800000D01*
G75*
G02*
X135225000Y-76725000I0J75000D01*
G01*
G37*
G36*
G01*
X135225000Y-77225000D02*
X135225000Y-77075000D01*
G75*
G02*
X135300000Y-77000000I75000J0D01*
G01*
X136625000Y-77000000D01*
G75*
G02*
X136700000Y-77075000I0J-75000D01*
G01*
X136700000Y-77225000D01*
G75*
G02*
X136625000Y-77300000I-75000J0D01*
G01*
X135300000Y-77300000D01*
G75*
G02*
X135225000Y-77225000I0J75000D01*
G01*
G37*
G36*
G01*
X135225000Y-77725000D02*
X135225000Y-77575000D01*
G75*
G02*
X135300000Y-77500000I75000J0D01*
G01*
X136625000Y-77500000D01*
G75*
G02*
X136700000Y-77575000I0J-75000D01*
G01*
X136700000Y-77725000D01*
G75*
G02*
X136625000Y-77800000I-75000J0D01*
G01*
X135300000Y-77800000D01*
G75*
G02*
X135225000Y-77725000I0J75000D01*
G01*
G37*
G36*
G01*
X135225000Y-78225000D02*
X135225000Y-78075000D01*
G75*
G02*
X135300000Y-78000000I75000J0D01*
G01*
X136625000Y-78000000D01*
G75*
G02*
X136700000Y-78075000I0J-75000D01*
G01*
X136700000Y-78225000D01*
G75*
G02*
X136625000Y-78300000I-75000J0D01*
G01*
X135300000Y-78300000D01*
G75*
G02*
X135225000Y-78225000I0J75000D01*
G01*
G37*
G36*
G01*
X135225000Y-78725000D02*
X135225000Y-78575000D01*
G75*
G02*
X135300000Y-78500000I75000J0D01*
G01*
X136625000Y-78500000D01*
G75*
G02*
X136700000Y-78575000I0J-75000D01*
G01*
X136700000Y-78725000D01*
G75*
G02*
X136625000Y-78800000I-75000J0D01*
G01*
X135300000Y-78800000D01*
G75*
G02*
X135225000Y-78725000I0J75000D01*
G01*
G37*
G36*
G01*
X135225000Y-79225000D02*
X135225000Y-79075000D01*
G75*
G02*
X135300000Y-79000000I75000J0D01*
G01*
X136625000Y-79000000D01*
G75*
G02*
X136700000Y-79075000I0J-75000D01*
G01*
X136700000Y-79225000D01*
G75*
G02*
X136625000Y-79300000I-75000J0D01*
G01*
X135300000Y-79300000D01*
G75*
G02*
X135225000Y-79225000I0J75000D01*
G01*
G37*
G36*
G01*
X135225000Y-79725000D02*
X135225000Y-79575000D01*
G75*
G02*
X135300000Y-79500000I75000J0D01*
G01*
X136625000Y-79500000D01*
G75*
G02*
X136700000Y-79575000I0J-75000D01*
G01*
X136700000Y-79725000D01*
G75*
G02*
X136625000Y-79800000I-75000J0D01*
G01*
X135300000Y-79800000D01*
G75*
G02*
X135225000Y-79725000I0J75000D01*
G01*
G37*
G36*
G01*
X135225000Y-80225000D02*
X135225000Y-80075000D01*
G75*
G02*
X135300000Y-80000000I75000J0D01*
G01*
X136625000Y-80000000D01*
G75*
G02*
X136700000Y-80075000I0J-75000D01*
G01*
X136700000Y-80225000D01*
G75*
G02*
X136625000Y-80300000I-75000J0D01*
G01*
X135300000Y-80300000D01*
G75*
G02*
X135225000Y-80225000I0J75000D01*
G01*
G37*
G36*
G01*
X135225000Y-80725000D02*
X135225000Y-80575000D01*
G75*
G02*
X135300000Y-80500000I75000J0D01*
G01*
X136625000Y-80500000D01*
G75*
G02*
X136700000Y-80575000I0J-75000D01*
G01*
X136700000Y-80725000D01*
G75*
G02*
X136625000Y-80800000I-75000J0D01*
G01*
X135300000Y-80800000D01*
G75*
G02*
X135225000Y-80725000I0J75000D01*
G01*
G37*
G36*
G01*
X135225000Y-81225000D02*
X135225000Y-81075000D01*
G75*
G02*
X135300000Y-81000000I75000J0D01*
G01*
X136625000Y-81000000D01*
G75*
G02*
X136700000Y-81075000I0J-75000D01*
G01*
X136700000Y-81225000D01*
G75*
G02*
X136625000Y-81300000I-75000J0D01*
G01*
X135300000Y-81300000D01*
G75*
G02*
X135225000Y-81225000I0J75000D01*
G01*
G37*
G36*
G01*
X135225000Y-81725000D02*
X135225000Y-81575000D01*
G75*
G02*
X135300000Y-81500000I75000J0D01*
G01*
X136625000Y-81500000D01*
G75*
G02*
X136700000Y-81575000I0J-75000D01*
G01*
X136700000Y-81725000D01*
G75*
G02*
X136625000Y-81800000I-75000J0D01*
G01*
X135300000Y-81800000D01*
G75*
G02*
X135225000Y-81725000I0J75000D01*
G01*
G37*
G36*
G01*
X135225000Y-82225000D02*
X135225000Y-82075000D01*
G75*
G02*
X135300000Y-82000000I75000J0D01*
G01*
X136625000Y-82000000D01*
G75*
G02*
X136700000Y-82075000I0J-75000D01*
G01*
X136700000Y-82225000D01*
G75*
G02*
X136625000Y-82300000I-75000J0D01*
G01*
X135300000Y-82300000D01*
G75*
G02*
X135225000Y-82225000I0J75000D01*
G01*
G37*
G36*
G01*
X135225000Y-82725000D02*
X135225000Y-82575000D01*
G75*
G02*
X135300000Y-82500000I75000J0D01*
G01*
X136625000Y-82500000D01*
G75*
G02*
X136700000Y-82575000I0J-75000D01*
G01*
X136700000Y-82725000D01*
G75*
G02*
X136625000Y-82800000I-75000J0D01*
G01*
X135300000Y-82800000D01*
G75*
G02*
X135225000Y-82725000I0J75000D01*
G01*
G37*
G36*
G01*
X135225000Y-83225000D02*
X135225000Y-83075000D01*
G75*
G02*
X135300000Y-83000000I75000J0D01*
G01*
X136625000Y-83000000D01*
G75*
G02*
X136700000Y-83075000I0J-75000D01*
G01*
X136700000Y-83225000D01*
G75*
G02*
X136625000Y-83300000I-75000J0D01*
G01*
X135300000Y-83300000D01*
G75*
G02*
X135225000Y-83225000I0J75000D01*
G01*
G37*
G36*
G01*
X135225000Y-83725000D02*
X135225000Y-83575000D01*
G75*
G02*
X135300000Y-83500000I75000J0D01*
G01*
X136625000Y-83500000D01*
G75*
G02*
X136700000Y-83575000I0J-75000D01*
G01*
X136700000Y-83725000D01*
G75*
G02*
X136625000Y-83800000I-75000J0D01*
G01*
X135300000Y-83800000D01*
G75*
G02*
X135225000Y-83725000I0J75000D01*
G01*
G37*
G36*
G01*
X135225000Y-84225000D02*
X135225000Y-84075000D01*
G75*
G02*
X135300000Y-84000000I75000J0D01*
G01*
X136625000Y-84000000D01*
G75*
G02*
X136700000Y-84075000I0J-75000D01*
G01*
X136700000Y-84225000D01*
G75*
G02*
X136625000Y-84300000I-75000J0D01*
G01*
X135300000Y-84300000D01*
G75*
G02*
X135225000Y-84225000I0J75000D01*
G01*
G37*
G36*
G01*
X135225000Y-84725000D02*
X135225000Y-84575000D01*
G75*
G02*
X135300000Y-84500000I75000J0D01*
G01*
X136625000Y-84500000D01*
G75*
G02*
X136700000Y-84575000I0J-75000D01*
G01*
X136700000Y-84725000D01*
G75*
G02*
X136625000Y-84800000I-75000J0D01*
G01*
X135300000Y-84800000D01*
G75*
G02*
X135225000Y-84725000I0J75000D01*
G01*
G37*
G36*
G01*
X135225000Y-85225000D02*
X135225000Y-85075000D01*
G75*
G02*
X135300000Y-85000000I75000J0D01*
G01*
X136625000Y-85000000D01*
G75*
G02*
X136700000Y-85075000I0J-75000D01*
G01*
X136700000Y-85225000D01*
G75*
G02*
X136625000Y-85300000I-75000J0D01*
G01*
X135300000Y-85300000D01*
G75*
G02*
X135225000Y-85225000I0J75000D01*
G01*
G37*
G36*
G01*
X135225000Y-85725000D02*
X135225000Y-85575000D01*
G75*
G02*
X135300000Y-85500000I75000J0D01*
G01*
X136625000Y-85500000D01*
G75*
G02*
X136700000Y-85575000I0J-75000D01*
G01*
X136700000Y-85725000D01*
G75*
G02*
X136625000Y-85800000I-75000J0D01*
G01*
X135300000Y-85800000D01*
G75*
G02*
X135225000Y-85725000I0J75000D01*
G01*
G37*
G36*
G01*
X135225000Y-86225000D02*
X135225000Y-86075000D01*
G75*
G02*
X135300000Y-86000000I75000J0D01*
G01*
X136625000Y-86000000D01*
G75*
G02*
X136700000Y-86075000I0J-75000D01*
G01*
X136700000Y-86225000D01*
G75*
G02*
X136625000Y-86300000I-75000J0D01*
G01*
X135300000Y-86300000D01*
G75*
G02*
X135225000Y-86225000I0J75000D01*
G01*
G37*
G36*
G01*
X135225000Y-86725000D02*
X135225000Y-86575000D01*
G75*
G02*
X135300000Y-86500000I75000J0D01*
G01*
X136625000Y-86500000D01*
G75*
G02*
X136700000Y-86575000I0J-75000D01*
G01*
X136700000Y-86725000D01*
G75*
G02*
X136625000Y-86800000I-75000J0D01*
G01*
X135300000Y-86800000D01*
G75*
G02*
X135225000Y-86725000I0J75000D01*
G01*
G37*
G36*
G01*
X135225000Y-87225000D02*
X135225000Y-87075000D01*
G75*
G02*
X135300000Y-87000000I75000J0D01*
G01*
X136625000Y-87000000D01*
G75*
G02*
X136700000Y-87075000I0J-75000D01*
G01*
X136700000Y-87225000D01*
G75*
G02*
X136625000Y-87300000I-75000J0D01*
G01*
X135300000Y-87300000D01*
G75*
G02*
X135225000Y-87225000I0J75000D01*
G01*
G37*
G36*
G01*
X135225000Y-87725000D02*
X135225000Y-87575000D01*
G75*
G02*
X135300000Y-87500000I75000J0D01*
G01*
X136625000Y-87500000D01*
G75*
G02*
X136700000Y-87575000I0J-75000D01*
G01*
X136700000Y-87725000D01*
G75*
G02*
X136625000Y-87800000I-75000J0D01*
G01*
X135300000Y-87800000D01*
G75*
G02*
X135225000Y-87725000I0J75000D01*
G01*
G37*
G36*
G01*
X135225000Y-88225000D02*
X135225000Y-88075000D01*
G75*
G02*
X135300000Y-88000000I75000J0D01*
G01*
X136625000Y-88000000D01*
G75*
G02*
X136700000Y-88075000I0J-75000D01*
G01*
X136700000Y-88225000D01*
G75*
G02*
X136625000Y-88300000I-75000J0D01*
G01*
X135300000Y-88300000D01*
G75*
G02*
X135225000Y-88225000I0J75000D01*
G01*
G37*
G36*
G01*
X135225000Y-88725000D02*
X135225000Y-88575000D01*
G75*
G02*
X135300000Y-88500000I75000J0D01*
G01*
X136625000Y-88500000D01*
G75*
G02*
X136700000Y-88575000I0J-75000D01*
G01*
X136700000Y-88725000D01*
G75*
G02*
X136625000Y-88800000I-75000J0D01*
G01*
X135300000Y-88800000D01*
G75*
G02*
X135225000Y-88725000I0J75000D01*
G01*
G37*
G36*
G01*
X135225000Y-89225000D02*
X135225000Y-89075000D01*
G75*
G02*
X135300000Y-89000000I75000J0D01*
G01*
X136625000Y-89000000D01*
G75*
G02*
X136700000Y-89075000I0J-75000D01*
G01*
X136700000Y-89225000D01*
G75*
G02*
X136625000Y-89300000I-75000J0D01*
G01*
X135300000Y-89300000D01*
G75*
G02*
X135225000Y-89225000I0J75000D01*
G01*
G37*
G36*
G01*
X133900000Y-91725000D02*
X133900000Y-90400000D01*
G75*
G02*
X133975000Y-90325000I75000J0D01*
G01*
X134125000Y-90325000D01*
G75*
G02*
X134200000Y-90400000I0J-75000D01*
G01*
X134200000Y-91725000D01*
G75*
G02*
X134125000Y-91800000I-75000J0D01*
G01*
X133975000Y-91800000D01*
G75*
G02*
X133900000Y-91725000I0J75000D01*
G01*
G37*
G36*
G01*
X133400000Y-91725000D02*
X133400000Y-90400000D01*
G75*
G02*
X133475000Y-90325000I75000J0D01*
G01*
X133625000Y-90325000D01*
G75*
G02*
X133700000Y-90400000I0J-75000D01*
G01*
X133700000Y-91725000D01*
G75*
G02*
X133625000Y-91800000I-75000J0D01*
G01*
X133475000Y-91800000D01*
G75*
G02*
X133400000Y-91725000I0J75000D01*
G01*
G37*
G36*
G01*
X132900000Y-91725000D02*
X132900000Y-90400000D01*
G75*
G02*
X132975000Y-90325000I75000J0D01*
G01*
X133125000Y-90325000D01*
G75*
G02*
X133200000Y-90400000I0J-75000D01*
G01*
X133200000Y-91725000D01*
G75*
G02*
X133125000Y-91800000I-75000J0D01*
G01*
X132975000Y-91800000D01*
G75*
G02*
X132900000Y-91725000I0J75000D01*
G01*
G37*
G36*
G01*
X132400000Y-91725000D02*
X132400000Y-90400000D01*
G75*
G02*
X132475000Y-90325000I75000J0D01*
G01*
X132625000Y-90325000D01*
G75*
G02*
X132700000Y-90400000I0J-75000D01*
G01*
X132700000Y-91725000D01*
G75*
G02*
X132625000Y-91800000I-75000J0D01*
G01*
X132475000Y-91800000D01*
G75*
G02*
X132400000Y-91725000I0J75000D01*
G01*
G37*
G36*
G01*
X131900000Y-91725000D02*
X131900000Y-90400000D01*
G75*
G02*
X131975000Y-90325000I75000J0D01*
G01*
X132125000Y-90325000D01*
G75*
G02*
X132200000Y-90400000I0J-75000D01*
G01*
X132200000Y-91725000D01*
G75*
G02*
X132125000Y-91800000I-75000J0D01*
G01*
X131975000Y-91800000D01*
G75*
G02*
X131900000Y-91725000I0J75000D01*
G01*
G37*
G36*
G01*
X131400000Y-91725000D02*
X131400000Y-90400000D01*
G75*
G02*
X131475000Y-90325000I75000J0D01*
G01*
X131625000Y-90325000D01*
G75*
G02*
X131700000Y-90400000I0J-75000D01*
G01*
X131700000Y-91725000D01*
G75*
G02*
X131625000Y-91800000I-75000J0D01*
G01*
X131475000Y-91800000D01*
G75*
G02*
X131400000Y-91725000I0J75000D01*
G01*
G37*
G36*
G01*
X130900000Y-91725000D02*
X130900000Y-90400000D01*
G75*
G02*
X130975000Y-90325000I75000J0D01*
G01*
X131125000Y-90325000D01*
G75*
G02*
X131200000Y-90400000I0J-75000D01*
G01*
X131200000Y-91725000D01*
G75*
G02*
X131125000Y-91800000I-75000J0D01*
G01*
X130975000Y-91800000D01*
G75*
G02*
X130900000Y-91725000I0J75000D01*
G01*
G37*
G36*
G01*
X130400000Y-91725000D02*
X130400000Y-90400000D01*
G75*
G02*
X130475000Y-90325000I75000J0D01*
G01*
X130625000Y-90325000D01*
G75*
G02*
X130700000Y-90400000I0J-75000D01*
G01*
X130700000Y-91725000D01*
G75*
G02*
X130625000Y-91800000I-75000J0D01*
G01*
X130475000Y-91800000D01*
G75*
G02*
X130400000Y-91725000I0J75000D01*
G01*
G37*
G36*
G01*
X129900000Y-91725000D02*
X129900000Y-90400000D01*
G75*
G02*
X129975000Y-90325000I75000J0D01*
G01*
X130125000Y-90325000D01*
G75*
G02*
X130200000Y-90400000I0J-75000D01*
G01*
X130200000Y-91725000D01*
G75*
G02*
X130125000Y-91800000I-75000J0D01*
G01*
X129975000Y-91800000D01*
G75*
G02*
X129900000Y-91725000I0J75000D01*
G01*
G37*
G36*
G01*
X129400000Y-91725000D02*
X129400000Y-90400000D01*
G75*
G02*
X129475000Y-90325000I75000J0D01*
G01*
X129625000Y-90325000D01*
G75*
G02*
X129700000Y-90400000I0J-75000D01*
G01*
X129700000Y-91725000D01*
G75*
G02*
X129625000Y-91800000I-75000J0D01*
G01*
X129475000Y-91800000D01*
G75*
G02*
X129400000Y-91725000I0J75000D01*
G01*
G37*
G36*
G01*
X128900000Y-91725000D02*
X128900000Y-90400000D01*
G75*
G02*
X128975000Y-90325000I75000J0D01*
G01*
X129125000Y-90325000D01*
G75*
G02*
X129200000Y-90400000I0J-75000D01*
G01*
X129200000Y-91725000D01*
G75*
G02*
X129125000Y-91800000I-75000J0D01*
G01*
X128975000Y-91800000D01*
G75*
G02*
X128900000Y-91725000I0J75000D01*
G01*
G37*
G36*
G01*
X128400000Y-91725000D02*
X128400000Y-90400000D01*
G75*
G02*
X128475000Y-90325000I75000J0D01*
G01*
X128625000Y-90325000D01*
G75*
G02*
X128700000Y-90400000I0J-75000D01*
G01*
X128700000Y-91725000D01*
G75*
G02*
X128625000Y-91800000I-75000J0D01*
G01*
X128475000Y-91800000D01*
G75*
G02*
X128400000Y-91725000I0J75000D01*
G01*
G37*
G36*
G01*
X127900000Y-91725000D02*
X127900000Y-90400000D01*
G75*
G02*
X127975000Y-90325000I75000J0D01*
G01*
X128125000Y-90325000D01*
G75*
G02*
X128200000Y-90400000I0J-75000D01*
G01*
X128200000Y-91725000D01*
G75*
G02*
X128125000Y-91800000I-75000J0D01*
G01*
X127975000Y-91800000D01*
G75*
G02*
X127900000Y-91725000I0J75000D01*
G01*
G37*
G36*
G01*
X127400000Y-91725000D02*
X127400000Y-90400000D01*
G75*
G02*
X127475000Y-90325000I75000J0D01*
G01*
X127625000Y-90325000D01*
G75*
G02*
X127700000Y-90400000I0J-75000D01*
G01*
X127700000Y-91725000D01*
G75*
G02*
X127625000Y-91800000I-75000J0D01*
G01*
X127475000Y-91800000D01*
G75*
G02*
X127400000Y-91725000I0J75000D01*
G01*
G37*
G36*
G01*
X126900000Y-91725000D02*
X126900000Y-90400000D01*
G75*
G02*
X126975000Y-90325000I75000J0D01*
G01*
X127125000Y-90325000D01*
G75*
G02*
X127200000Y-90400000I0J-75000D01*
G01*
X127200000Y-91725000D01*
G75*
G02*
X127125000Y-91800000I-75000J0D01*
G01*
X126975000Y-91800000D01*
G75*
G02*
X126900000Y-91725000I0J75000D01*
G01*
G37*
G36*
G01*
X126400000Y-91725000D02*
X126400000Y-90400000D01*
G75*
G02*
X126475000Y-90325000I75000J0D01*
G01*
X126625000Y-90325000D01*
G75*
G02*
X126700000Y-90400000I0J-75000D01*
G01*
X126700000Y-91725000D01*
G75*
G02*
X126625000Y-91800000I-75000J0D01*
G01*
X126475000Y-91800000D01*
G75*
G02*
X126400000Y-91725000I0J75000D01*
G01*
G37*
G36*
G01*
X125900000Y-91725000D02*
X125900000Y-90400000D01*
G75*
G02*
X125975000Y-90325000I75000J0D01*
G01*
X126125000Y-90325000D01*
G75*
G02*
X126200000Y-90400000I0J-75000D01*
G01*
X126200000Y-91725000D01*
G75*
G02*
X126125000Y-91800000I-75000J0D01*
G01*
X125975000Y-91800000D01*
G75*
G02*
X125900000Y-91725000I0J75000D01*
G01*
G37*
G36*
G01*
X125400000Y-91725000D02*
X125400000Y-90400000D01*
G75*
G02*
X125475000Y-90325000I75000J0D01*
G01*
X125625000Y-90325000D01*
G75*
G02*
X125700000Y-90400000I0J-75000D01*
G01*
X125700000Y-91725000D01*
G75*
G02*
X125625000Y-91800000I-75000J0D01*
G01*
X125475000Y-91800000D01*
G75*
G02*
X125400000Y-91725000I0J75000D01*
G01*
G37*
G36*
G01*
X124900000Y-91725000D02*
X124900000Y-90400000D01*
G75*
G02*
X124975000Y-90325000I75000J0D01*
G01*
X125125000Y-90325000D01*
G75*
G02*
X125200000Y-90400000I0J-75000D01*
G01*
X125200000Y-91725000D01*
G75*
G02*
X125125000Y-91800000I-75000J0D01*
G01*
X124975000Y-91800000D01*
G75*
G02*
X124900000Y-91725000I0J75000D01*
G01*
G37*
G36*
G01*
X124400000Y-91725000D02*
X124400000Y-90400000D01*
G75*
G02*
X124475000Y-90325000I75000J0D01*
G01*
X124625000Y-90325000D01*
G75*
G02*
X124700000Y-90400000I0J-75000D01*
G01*
X124700000Y-91725000D01*
G75*
G02*
X124625000Y-91800000I-75000J0D01*
G01*
X124475000Y-91800000D01*
G75*
G02*
X124400000Y-91725000I0J75000D01*
G01*
G37*
G36*
G01*
X123900000Y-91725000D02*
X123900000Y-90400000D01*
G75*
G02*
X123975000Y-90325000I75000J0D01*
G01*
X124125000Y-90325000D01*
G75*
G02*
X124200000Y-90400000I0J-75000D01*
G01*
X124200000Y-91725000D01*
G75*
G02*
X124125000Y-91800000I-75000J0D01*
G01*
X123975000Y-91800000D01*
G75*
G02*
X123900000Y-91725000I0J75000D01*
G01*
G37*
G36*
G01*
X123400000Y-91725000D02*
X123400000Y-90400000D01*
G75*
G02*
X123475000Y-90325000I75000J0D01*
G01*
X123625000Y-90325000D01*
G75*
G02*
X123700000Y-90400000I0J-75000D01*
G01*
X123700000Y-91725000D01*
G75*
G02*
X123625000Y-91800000I-75000J0D01*
G01*
X123475000Y-91800000D01*
G75*
G02*
X123400000Y-91725000I0J75000D01*
G01*
G37*
G36*
G01*
X122900000Y-91725000D02*
X122900000Y-90400000D01*
G75*
G02*
X122975000Y-90325000I75000J0D01*
G01*
X123125000Y-90325000D01*
G75*
G02*
X123200000Y-90400000I0J-75000D01*
G01*
X123200000Y-91725000D01*
G75*
G02*
X123125000Y-91800000I-75000J0D01*
G01*
X122975000Y-91800000D01*
G75*
G02*
X122900000Y-91725000I0J75000D01*
G01*
G37*
G36*
G01*
X122400000Y-91725000D02*
X122400000Y-90400000D01*
G75*
G02*
X122475000Y-90325000I75000J0D01*
G01*
X122625000Y-90325000D01*
G75*
G02*
X122700000Y-90400000I0J-75000D01*
G01*
X122700000Y-91725000D01*
G75*
G02*
X122625000Y-91800000I-75000J0D01*
G01*
X122475000Y-91800000D01*
G75*
G02*
X122400000Y-91725000I0J75000D01*
G01*
G37*
G36*
G01*
X121900000Y-91725000D02*
X121900000Y-90400000D01*
G75*
G02*
X121975000Y-90325000I75000J0D01*
G01*
X122125000Y-90325000D01*
G75*
G02*
X122200000Y-90400000I0J-75000D01*
G01*
X122200000Y-91725000D01*
G75*
G02*
X122125000Y-91800000I-75000J0D01*
G01*
X121975000Y-91800000D01*
G75*
G02*
X121900000Y-91725000I0J75000D01*
G01*
G37*
G36*
G01*
X121400000Y-91725000D02*
X121400000Y-90400000D01*
G75*
G02*
X121475000Y-90325000I75000J0D01*
G01*
X121625000Y-90325000D01*
G75*
G02*
X121700000Y-90400000I0J-75000D01*
G01*
X121700000Y-91725000D01*
G75*
G02*
X121625000Y-91800000I-75000J0D01*
G01*
X121475000Y-91800000D01*
G75*
G02*
X121400000Y-91725000I0J75000D01*
G01*
G37*
G36*
G01*
X120900000Y-91725000D02*
X120900000Y-90400000D01*
G75*
G02*
X120975000Y-90325000I75000J0D01*
G01*
X121125000Y-90325000D01*
G75*
G02*
X121200000Y-90400000I0J-75000D01*
G01*
X121200000Y-91725000D01*
G75*
G02*
X121125000Y-91800000I-75000J0D01*
G01*
X120975000Y-91800000D01*
G75*
G02*
X120900000Y-91725000I0J75000D01*
G01*
G37*
G36*
G01*
X120400000Y-91725000D02*
X120400000Y-90400000D01*
G75*
G02*
X120475000Y-90325000I75000J0D01*
G01*
X120625000Y-90325000D01*
G75*
G02*
X120700000Y-90400000I0J-75000D01*
G01*
X120700000Y-91725000D01*
G75*
G02*
X120625000Y-91800000I-75000J0D01*
G01*
X120475000Y-91800000D01*
G75*
G02*
X120400000Y-91725000I0J75000D01*
G01*
G37*
G36*
G01*
X119900000Y-91725000D02*
X119900000Y-90400000D01*
G75*
G02*
X119975000Y-90325000I75000J0D01*
G01*
X120125000Y-90325000D01*
G75*
G02*
X120200000Y-90400000I0J-75000D01*
G01*
X120200000Y-91725000D01*
G75*
G02*
X120125000Y-91800000I-75000J0D01*
G01*
X119975000Y-91800000D01*
G75*
G02*
X119900000Y-91725000I0J75000D01*
G01*
G37*
G36*
G01*
X119400000Y-91725000D02*
X119400000Y-90400000D01*
G75*
G02*
X119475000Y-90325000I75000J0D01*
G01*
X119625000Y-90325000D01*
G75*
G02*
X119700000Y-90400000I0J-75000D01*
G01*
X119700000Y-91725000D01*
G75*
G02*
X119625000Y-91800000I-75000J0D01*
G01*
X119475000Y-91800000D01*
G75*
G02*
X119400000Y-91725000I0J75000D01*
G01*
G37*
G36*
G01*
X118900000Y-91725000D02*
X118900000Y-90400000D01*
G75*
G02*
X118975000Y-90325000I75000J0D01*
G01*
X119125000Y-90325000D01*
G75*
G02*
X119200000Y-90400000I0J-75000D01*
G01*
X119200000Y-91725000D01*
G75*
G02*
X119125000Y-91800000I-75000J0D01*
G01*
X118975000Y-91800000D01*
G75*
G02*
X118900000Y-91725000I0J75000D01*
G01*
G37*
G36*
G01*
X118400000Y-91725000D02*
X118400000Y-90400000D01*
G75*
G02*
X118475000Y-90325000I75000J0D01*
G01*
X118625000Y-90325000D01*
G75*
G02*
X118700000Y-90400000I0J-75000D01*
G01*
X118700000Y-91725000D01*
G75*
G02*
X118625000Y-91800000I-75000J0D01*
G01*
X118475000Y-91800000D01*
G75*
G02*
X118400000Y-91725000I0J75000D01*
G01*
G37*
G36*
G01*
X117900000Y-91725000D02*
X117900000Y-90400000D01*
G75*
G02*
X117975000Y-90325000I75000J0D01*
G01*
X118125000Y-90325000D01*
G75*
G02*
X118200000Y-90400000I0J-75000D01*
G01*
X118200000Y-91725000D01*
G75*
G02*
X118125000Y-91800000I-75000J0D01*
G01*
X117975000Y-91800000D01*
G75*
G02*
X117900000Y-91725000I0J75000D01*
G01*
G37*
G36*
G01*
X117400000Y-91725000D02*
X117400000Y-90400000D01*
G75*
G02*
X117475000Y-90325000I75000J0D01*
G01*
X117625000Y-90325000D01*
G75*
G02*
X117700000Y-90400000I0J-75000D01*
G01*
X117700000Y-91725000D01*
G75*
G02*
X117625000Y-91800000I-75000J0D01*
G01*
X117475000Y-91800000D01*
G75*
G02*
X117400000Y-91725000I0J75000D01*
G01*
G37*
G36*
G01*
X116900000Y-91725000D02*
X116900000Y-90400000D01*
G75*
G02*
X116975000Y-90325000I75000J0D01*
G01*
X117125000Y-90325000D01*
G75*
G02*
X117200000Y-90400000I0J-75000D01*
G01*
X117200000Y-91725000D01*
G75*
G02*
X117125000Y-91800000I-75000J0D01*
G01*
X116975000Y-91800000D01*
G75*
G02*
X116900000Y-91725000I0J75000D01*
G01*
G37*
G36*
G01*
X116400000Y-91725000D02*
X116400000Y-90400000D01*
G75*
G02*
X116475000Y-90325000I75000J0D01*
G01*
X116625000Y-90325000D01*
G75*
G02*
X116700000Y-90400000I0J-75000D01*
G01*
X116700000Y-91725000D01*
G75*
G02*
X116625000Y-91800000I-75000J0D01*
G01*
X116475000Y-91800000D01*
G75*
G02*
X116400000Y-91725000I0J75000D01*
G01*
G37*
G36*
G01*
X113900000Y-89225000D02*
X113900000Y-89075000D01*
G75*
G02*
X113975000Y-89000000I75000J0D01*
G01*
X115300000Y-89000000D01*
G75*
G02*
X115375000Y-89075000I0J-75000D01*
G01*
X115375000Y-89225000D01*
G75*
G02*
X115300000Y-89300000I-75000J0D01*
G01*
X113975000Y-89300000D01*
G75*
G02*
X113900000Y-89225000I0J75000D01*
G01*
G37*
G36*
G01*
X113900000Y-88725000D02*
X113900000Y-88575000D01*
G75*
G02*
X113975000Y-88500000I75000J0D01*
G01*
X115300000Y-88500000D01*
G75*
G02*
X115375000Y-88575000I0J-75000D01*
G01*
X115375000Y-88725000D01*
G75*
G02*
X115300000Y-88800000I-75000J0D01*
G01*
X113975000Y-88800000D01*
G75*
G02*
X113900000Y-88725000I0J75000D01*
G01*
G37*
G36*
G01*
X113900000Y-88225000D02*
X113900000Y-88075000D01*
G75*
G02*
X113975000Y-88000000I75000J0D01*
G01*
X115300000Y-88000000D01*
G75*
G02*
X115375000Y-88075000I0J-75000D01*
G01*
X115375000Y-88225000D01*
G75*
G02*
X115300000Y-88300000I-75000J0D01*
G01*
X113975000Y-88300000D01*
G75*
G02*
X113900000Y-88225000I0J75000D01*
G01*
G37*
G36*
G01*
X113900000Y-87725000D02*
X113900000Y-87575000D01*
G75*
G02*
X113975000Y-87500000I75000J0D01*
G01*
X115300000Y-87500000D01*
G75*
G02*
X115375000Y-87575000I0J-75000D01*
G01*
X115375000Y-87725000D01*
G75*
G02*
X115300000Y-87800000I-75000J0D01*
G01*
X113975000Y-87800000D01*
G75*
G02*
X113900000Y-87725000I0J75000D01*
G01*
G37*
G36*
G01*
X113900000Y-87225000D02*
X113900000Y-87075000D01*
G75*
G02*
X113975000Y-87000000I75000J0D01*
G01*
X115300000Y-87000000D01*
G75*
G02*
X115375000Y-87075000I0J-75000D01*
G01*
X115375000Y-87225000D01*
G75*
G02*
X115300000Y-87300000I-75000J0D01*
G01*
X113975000Y-87300000D01*
G75*
G02*
X113900000Y-87225000I0J75000D01*
G01*
G37*
G36*
G01*
X113900000Y-86725000D02*
X113900000Y-86575000D01*
G75*
G02*
X113975000Y-86500000I75000J0D01*
G01*
X115300000Y-86500000D01*
G75*
G02*
X115375000Y-86575000I0J-75000D01*
G01*
X115375000Y-86725000D01*
G75*
G02*
X115300000Y-86800000I-75000J0D01*
G01*
X113975000Y-86800000D01*
G75*
G02*
X113900000Y-86725000I0J75000D01*
G01*
G37*
G36*
G01*
X113900000Y-86225000D02*
X113900000Y-86075000D01*
G75*
G02*
X113975000Y-86000000I75000J0D01*
G01*
X115300000Y-86000000D01*
G75*
G02*
X115375000Y-86075000I0J-75000D01*
G01*
X115375000Y-86225000D01*
G75*
G02*
X115300000Y-86300000I-75000J0D01*
G01*
X113975000Y-86300000D01*
G75*
G02*
X113900000Y-86225000I0J75000D01*
G01*
G37*
G36*
G01*
X113900000Y-85725000D02*
X113900000Y-85575000D01*
G75*
G02*
X113975000Y-85500000I75000J0D01*
G01*
X115300000Y-85500000D01*
G75*
G02*
X115375000Y-85575000I0J-75000D01*
G01*
X115375000Y-85725000D01*
G75*
G02*
X115300000Y-85800000I-75000J0D01*
G01*
X113975000Y-85800000D01*
G75*
G02*
X113900000Y-85725000I0J75000D01*
G01*
G37*
G36*
G01*
X113900000Y-85225000D02*
X113900000Y-85075000D01*
G75*
G02*
X113975000Y-85000000I75000J0D01*
G01*
X115300000Y-85000000D01*
G75*
G02*
X115375000Y-85075000I0J-75000D01*
G01*
X115375000Y-85225000D01*
G75*
G02*
X115300000Y-85300000I-75000J0D01*
G01*
X113975000Y-85300000D01*
G75*
G02*
X113900000Y-85225000I0J75000D01*
G01*
G37*
G36*
G01*
X113900000Y-84725000D02*
X113900000Y-84575000D01*
G75*
G02*
X113975000Y-84500000I75000J0D01*
G01*
X115300000Y-84500000D01*
G75*
G02*
X115375000Y-84575000I0J-75000D01*
G01*
X115375000Y-84725000D01*
G75*
G02*
X115300000Y-84800000I-75000J0D01*
G01*
X113975000Y-84800000D01*
G75*
G02*
X113900000Y-84725000I0J75000D01*
G01*
G37*
G36*
G01*
X113900000Y-84225000D02*
X113900000Y-84075000D01*
G75*
G02*
X113975000Y-84000000I75000J0D01*
G01*
X115300000Y-84000000D01*
G75*
G02*
X115375000Y-84075000I0J-75000D01*
G01*
X115375000Y-84225000D01*
G75*
G02*
X115300000Y-84300000I-75000J0D01*
G01*
X113975000Y-84300000D01*
G75*
G02*
X113900000Y-84225000I0J75000D01*
G01*
G37*
G36*
G01*
X113900000Y-83725000D02*
X113900000Y-83575000D01*
G75*
G02*
X113975000Y-83500000I75000J0D01*
G01*
X115300000Y-83500000D01*
G75*
G02*
X115375000Y-83575000I0J-75000D01*
G01*
X115375000Y-83725000D01*
G75*
G02*
X115300000Y-83800000I-75000J0D01*
G01*
X113975000Y-83800000D01*
G75*
G02*
X113900000Y-83725000I0J75000D01*
G01*
G37*
G36*
G01*
X113900000Y-83225000D02*
X113900000Y-83075000D01*
G75*
G02*
X113975000Y-83000000I75000J0D01*
G01*
X115300000Y-83000000D01*
G75*
G02*
X115375000Y-83075000I0J-75000D01*
G01*
X115375000Y-83225000D01*
G75*
G02*
X115300000Y-83300000I-75000J0D01*
G01*
X113975000Y-83300000D01*
G75*
G02*
X113900000Y-83225000I0J75000D01*
G01*
G37*
G36*
G01*
X113900000Y-82725000D02*
X113900000Y-82575000D01*
G75*
G02*
X113975000Y-82500000I75000J0D01*
G01*
X115300000Y-82500000D01*
G75*
G02*
X115375000Y-82575000I0J-75000D01*
G01*
X115375000Y-82725000D01*
G75*
G02*
X115300000Y-82800000I-75000J0D01*
G01*
X113975000Y-82800000D01*
G75*
G02*
X113900000Y-82725000I0J75000D01*
G01*
G37*
G36*
G01*
X113900000Y-82225000D02*
X113900000Y-82075000D01*
G75*
G02*
X113975000Y-82000000I75000J0D01*
G01*
X115300000Y-82000000D01*
G75*
G02*
X115375000Y-82075000I0J-75000D01*
G01*
X115375000Y-82225000D01*
G75*
G02*
X115300000Y-82300000I-75000J0D01*
G01*
X113975000Y-82300000D01*
G75*
G02*
X113900000Y-82225000I0J75000D01*
G01*
G37*
G36*
G01*
X113900000Y-81725000D02*
X113900000Y-81575000D01*
G75*
G02*
X113975000Y-81500000I75000J0D01*
G01*
X115300000Y-81500000D01*
G75*
G02*
X115375000Y-81575000I0J-75000D01*
G01*
X115375000Y-81725000D01*
G75*
G02*
X115300000Y-81800000I-75000J0D01*
G01*
X113975000Y-81800000D01*
G75*
G02*
X113900000Y-81725000I0J75000D01*
G01*
G37*
G36*
G01*
X113900000Y-81225000D02*
X113900000Y-81075000D01*
G75*
G02*
X113975000Y-81000000I75000J0D01*
G01*
X115300000Y-81000000D01*
G75*
G02*
X115375000Y-81075000I0J-75000D01*
G01*
X115375000Y-81225000D01*
G75*
G02*
X115300000Y-81300000I-75000J0D01*
G01*
X113975000Y-81300000D01*
G75*
G02*
X113900000Y-81225000I0J75000D01*
G01*
G37*
G36*
G01*
X113900000Y-80725000D02*
X113900000Y-80575000D01*
G75*
G02*
X113975000Y-80500000I75000J0D01*
G01*
X115300000Y-80500000D01*
G75*
G02*
X115375000Y-80575000I0J-75000D01*
G01*
X115375000Y-80725000D01*
G75*
G02*
X115300000Y-80800000I-75000J0D01*
G01*
X113975000Y-80800000D01*
G75*
G02*
X113900000Y-80725000I0J75000D01*
G01*
G37*
G36*
G01*
X113900000Y-80225000D02*
X113900000Y-80075000D01*
G75*
G02*
X113975000Y-80000000I75000J0D01*
G01*
X115300000Y-80000000D01*
G75*
G02*
X115375000Y-80075000I0J-75000D01*
G01*
X115375000Y-80225000D01*
G75*
G02*
X115300000Y-80300000I-75000J0D01*
G01*
X113975000Y-80300000D01*
G75*
G02*
X113900000Y-80225000I0J75000D01*
G01*
G37*
G36*
G01*
X113900000Y-79725000D02*
X113900000Y-79575000D01*
G75*
G02*
X113975000Y-79500000I75000J0D01*
G01*
X115300000Y-79500000D01*
G75*
G02*
X115375000Y-79575000I0J-75000D01*
G01*
X115375000Y-79725000D01*
G75*
G02*
X115300000Y-79800000I-75000J0D01*
G01*
X113975000Y-79800000D01*
G75*
G02*
X113900000Y-79725000I0J75000D01*
G01*
G37*
G36*
G01*
X113900000Y-79225000D02*
X113900000Y-79075000D01*
G75*
G02*
X113975000Y-79000000I75000J0D01*
G01*
X115300000Y-79000000D01*
G75*
G02*
X115375000Y-79075000I0J-75000D01*
G01*
X115375000Y-79225000D01*
G75*
G02*
X115300000Y-79300000I-75000J0D01*
G01*
X113975000Y-79300000D01*
G75*
G02*
X113900000Y-79225000I0J75000D01*
G01*
G37*
G36*
G01*
X113900000Y-78725000D02*
X113900000Y-78575000D01*
G75*
G02*
X113975000Y-78500000I75000J0D01*
G01*
X115300000Y-78500000D01*
G75*
G02*
X115375000Y-78575000I0J-75000D01*
G01*
X115375000Y-78725000D01*
G75*
G02*
X115300000Y-78800000I-75000J0D01*
G01*
X113975000Y-78800000D01*
G75*
G02*
X113900000Y-78725000I0J75000D01*
G01*
G37*
G36*
G01*
X113900000Y-78225000D02*
X113900000Y-78075000D01*
G75*
G02*
X113975000Y-78000000I75000J0D01*
G01*
X115300000Y-78000000D01*
G75*
G02*
X115375000Y-78075000I0J-75000D01*
G01*
X115375000Y-78225000D01*
G75*
G02*
X115300000Y-78300000I-75000J0D01*
G01*
X113975000Y-78300000D01*
G75*
G02*
X113900000Y-78225000I0J75000D01*
G01*
G37*
G36*
G01*
X113900000Y-77725000D02*
X113900000Y-77575000D01*
G75*
G02*
X113975000Y-77500000I75000J0D01*
G01*
X115300000Y-77500000D01*
G75*
G02*
X115375000Y-77575000I0J-75000D01*
G01*
X115375000Y-77725000D01*
G75*
G02*
X115300000Y-77800000I-75000J0D01*
G01*
X113975000Y-77800000D01*
G75*
G02*
X113900000Y-77725000I0J75000D01*
G01*
G37*
G36*
G01*
X113900000Y-77225000D02*
X113900000Y-77075000D01*
G75*
G02*
X113975000Y-77000000I75000J0D01*
G01*
X115300000Y-77000000D01*
G75*
G02*
X115375000Y-77075000I0J-75000D01*
G01*
X115375000Y-77225000D01*
G75*
G02*
X115300000Y-77300000I-75000J0D01*
G01*
X113975000Y-77300000D01*
G75*
G02*
X113900000Y-77225000I0J75000D01*
G01*
G37*
G36*
G01*
X113900000Y-76725000D02*
X113900000Y-76575000D01*
G75*
G02*
X113975000Y-76500000I75000J0D01*
G01*
X115300000Y-76500000D01*
G75*
G02*
X115375000Y-76575000I0J-75000D01*
G01*
X115375000Y-76725000D01*
G75*
G02*
X115300000Y-76800000I-75000J0D01*
G01*
X113975000Y-76800000D01*
G75*
G02*
X113900000Y-76725000I0J75000D01*
G01*
G37*
G36*
G01*
X113900000Y-76225000D02*
X113900000Y-76075000D01*
G75*
G02*
X113975000Y-76000000I75000J0D01*
G01*
X115300000Y-76000000D01*
G75*
G02*
X115375000Y-76075000I0J-75000D01*
G01*
X115375000Y-76225000D01*
G75*
G02*
X115300000Y-76300000I-75000J0D01*
G01*
X113975000Y-76300000D01*
G75*
G02*
X113900000Y-76225000I0J75000D01*
G01*
G37*
G36*
G01*
X113900000Y-75725000D02*
X113900000Y-75575000D01*
G75*
G02*
X113975000Y-75500000I75000J0D01*
G01*
X115300000Y-75500000D01*
G75*
G02*
X115375000Y-75575000I0J-75000D01*
G01*
X115375000Y-75725000D01*
G75*
G02*
X115300000Y-75800000I-75000J0D01*
G01*
X113975000Y-75800000D01*
G75*
G02*
X113900000Y-75725000I0J75000D01*
G01*
G37*
G36*
G01*
X113900000Y-75225000D02*
X113900000Y-75075000D01*
G75*
G02*
X113975000Y-75000000I75000J0D01*
G01*
X115300000Y-75000000D01*
G75*
G02*
X115375000Y-75075000I0J-75000D01*
G01*
X115375000Y-75225000D01*
G75*
G02*
X115300000Y-75300000I-75000J0D01*
G01*
X113975000Y-75300000D01*
G75*
G02*
X113900000Y-75225000I0J75000D01*
G01*
G37*
G36*
G01*
X113900000Y-74725000D02*
X113900000Y-74575000D01*
G75*
G02*
X113975000Y-74500000I75000J0D01*
G01*
X115300000Y-74500000D01*
G75*
G02*
X115375000Y-74575000I0J-75000D01*
G01*
X115375000Y-74725000D01*
G75*
G02*
X115300000Y-74800000I-75000J0D01*
G01*
X113975000Y-74800000D01*
G75*
G02*
X113900000Y-74725000I0J75000D01*
G01*
G37*
G36*
G01*
X113900000Y-74225000D02*
X113900000Y-74075000D01*
G75*
G02*
X113975000Y-74000000I75000J0D01*
G01*
X115300000Y-74000000D01*
G75*
G02*
X115375000Y-74075000I0J-75000D01*
G01*
X115375000Y-74225000D01*
G75*
G02*
X115300000Y-74300000I-75000J0D01*
G01*
X113975000Y-74300000D01*
G75*
G02*
X113900000Y-74225000I0J75000D01*
G01*
G37*
G36*
G01*
X113900000Y-73725000D02*
X113900000Y-73575000D01*
G75*
G02*
X113975000Y-73500000I75000J0D01*
G01*
X115300000Y-73500000D01*
G75*
G02*
X115375000Y-73575000I0J-75000D01*
G01*
X115375000Y-73725000D01*
G75*
G02*
X115300000Y-73800000I-75000J0D01*
G01*
X113975000Y-73800000D01*
G75*
G02*
X113900000Y-73725000I0J75000D01*
G01*
G37*
G36*
G01*
X113900000Y-73225000D02*
X113900000Y-73075000D01*
G75*
G02*
X113975000Y-73000000I75000J0D01*
G01*
X115300000Y-73000000D01*
G75*
G02*
X115375000Y-73075000I0J-75000D01*
G01*
X115375000Y-73225000D01*
G75*
G02*
X115300000Y-73300000I-75000J0D01*
G01*
X113975000Y-73300000D01*
G75*
G02*
X113900000Y-73225000I0J75000D01*
G01*
G37*
G36*
G01*
X113900000Y-72725000D02*
X113900000Y-72575000D01*
G75*
G02*
X113975000Y-72500000I75000J0D01*
G01*
X115300000Y-72500000D01*
G75*
G02*
X115375000Y-72575000I0J-75000D01*
G01*
X115375000Y-72725000D01*
G75*
G02*
X115300000Y-72800000I-75000J0D01*
G01*
X113975000Y-72800000D01*
G75*
G02*
X113900000Y-72725000I0J75000D01*
G01*
G37*
G36*
G01*
X113900000Y-72225000D02*
X113900000Y-72075000D01*
G75*
G02*
X113975000Y-72000000I75000J0D01*
G01*
X115300000Y-72000000D01*
G75*
G02*
X115375000Y-72075000I0J-75000D01*
G01*
X115375000Y-72225000D01*
G75*
G02*
X115300000Y-72300000I-75000J0D01*
G01*
X113975000Y-72300000D01*
G75*
G02*
X113900000Y-72225000I0J75000D01*
G01*
G37*
G36*
G01*
X113900000Y-71725000D02*
X113900000Y-71575000D01*
G75*
G02*
X113975000Y-71500000I75000J0D01*
G01*
X115300000Y-71500000D01*
G75*
G02*
X115375000Y-71575000I0J-75000D01*
G01*
X115375000Y-71725000D01*
G75*
G02*
X115300000Y-71800000I-75000J0D01*
G01*
X113975000Y-71800000D01*
G75*
G02*
X113900000Y-71725000I0J75000D01*
G01*
G37*
%TD*%
D10*
%TO.C,SW1*%
X147080000Y-55450000D03*
X147080000Y-50950000D03*
X139120000Y-50950000D03*
X139120000Y-55450000D03*
%TD*%
%TO.C,R11*%
G36*
G01*
X141672500Y-71710000D02*
X141327500Y-71710000D01*
G75*
G02*
X141180000Y-71562500I0J147500D01*
G01*
X141180000Y-71267500D01*
G75*
G02*
X141327500Y-71120000I147500J0D01*
G01*
X141672500Y-71120000D01*
G75*
G02*
X141820000Y-71267500I0J-147500D01*
G01*
X141820000Y-71562500D01*
G75*
G02*
X141672500Y-71710000I-147500J0D01*
G01*
G37*
G36*
G01*
X141672500Y-72680000D02*
X141327500Y-72680000D01*
G75*
G02*
X141180000Y-72532500I0J147500D01*
G01*
X141180000Y-72237500D01*
G75*
G02*
X141327500Y-72090000I147500J0D01*
G01*
X141672500Y-72090000D01*
G75*
G02*
X141820000Y-72237500I0J-147500D01*
G01*
X141820000Y-72532500D01*
G75*
G02*
X141672500Y-72680000I-147500J0D01*
G01*
G37*
%TD*%
%TO.C,R10*%
G36*
G01*
X105010000Y-103727500D02*
X105010000Y-104072500D01*
G75*
G02*
X104862500Y-104220000I-147500J0D01*
G01*
X104567500Y-104220000D01*
G75*
G02*
X104420000Y-104072500I0J147500D01*
G01*
X104420000Y-103727500D01*
G75*
G02*
X104567500Y-103580000I147500J0D01*
G01*
X104862500Y-103580000D01*
G75*
G02*
X105010000Y-103727500I0J-147500D01*
G01*
G37*
G36*
G01*
X105980000Y-103727500D02*
X105980000Y-104072500D01*
G75*
G02*
X105832500Y-104220000I-147500J0D01*
G01*
X105537500Y-104220000D01*
G75*
G02*
X105390000Y-104072500I0J147500D01*
G01*
X105390000Y-103727500D01*
G75*
G02*
X105537500Y-103580000I147500J0D01*
G01*
X105832500Y-103580000D01*
G75*
G02*
X105980000Y-103727500I0J-147500D01*
G01*
G37*
%TD*%
%TO.C,R9*%
G36*
G01*
X105390000Y-92872500D02*
X105390000Y-92527500D01*
G75*
G02*
X105537500Y-92380000I147500J0D01*
G01*
X105832500Y-92380000D01*
G75*
G02*
X105980000Y-92527500I0J-147500D01*
G01*
X105980000Y-92872500D01*
G75*
G02*
X105832500Y-93020000I-147500J0D01*
G01*
X105537500Y-93020000D01*
G75*
G02*
X105390000Y-92872500I0J147500D01*
G01*
G37*
G36*
G01*
X104420000Y-92872500D02*
X104420000Y-92527500D01*
G75*
G02*
X104567500Y-92380000I147500J0D01*
G01*
X104862500Y-92380000D01*
G75*
G02*
X105010000Y-92527500I0J-147500D01*
G01*
X105010000Y-92872500D01*
G75*
G02*
X104862500Y-93020000I-147500J0D01*
G01*
X104567500Y-93020000D01*
G75*
G02*
X104420000Y-92872500I0J147500D01*
G01*
G37*
%TD*%
D11*
%TO.C,J4*%
X154925000Y-106530000D03*
X149875000Y-106530000D03*
X154925000Y-103990000D03*
X149875000Y-103990000D03*
X154925000Y-101450000D03*
X149875000Y-101450000D03*
X154925000Y-98910000D03*
X149875000Y-98910000D03*
X154925000Y-96370000D03*
X149875000Y-96370000D03*
X154925000Y-93830000D03*
X149875000Y-93830000D03*
X154925000Y-91290000D03*
X149875000Y-91290000D03*
X154925000Y-88750000D03*
X149875000Y-88750000D03*
X154925000Y-86210000D03*
X149875000Y-86210000D03*
X154925000Y-83670000D03*
X149875000Y-83670000D03*
%TD*%
%TO.C,J3*%
X100825000Y-77130000D03*
X95775000Y-77130000D03*
X100825000Y-74590000D03*
X95775000Y-74590000D03*
X100825000Y-72050000D03*
X95775000Y-72050000D03*
X100825000Y-69510000D03*
X95775000Y-69510000D03*
X100825000Y-66970000D03*
X95775000Y-66970000D03*
X100825000Y-64430000D03*
X95775000Y-64430000D03*
X100825000Y-61890000D03*
X95775000Y-61890000D03*
X100825000Y-59350000D03*
X95775000Y-59350000D03*
X100825000Y-56810000D03*
X95775000Y-56810000D03*
X100825000Y-54270000D03*
X95775000Y-54270000D03*
%TD*%
D12*
%TO.C,J2*%
X107740000Y-100770000D03*
X107740000Y-95730000D03*
X105200000Y-100770000D03*
X105200000Y-95730000D03*
X102660000Y-100770000D03*
X102660000Y-95730000D03*
%TD*%
D13*
%TO.C,LATCH*%
X161000000Y-117510000D03*
X161000000Y-142490000D03*
D14*
X158200000Y-120500000D03*
X158200000Y-121500000D03*
X158200000Y-122500000D03*
X158200000Y-123500000D03*
X158200000Y-124500000D03*
X158200000Y-125500000D03*
X158200000Y-126500000D03*
X158200000Y-127500000D03*
X158200000Y-128500000D03*
X158200000Y-129500000D03*
X158200000Y-130500000D03*
X158200000Y-131500000D03*
X158200000Y-132500000D03*
X158200000Y-133500000D03*
X158200000Y-134500000D03*
X158200000Y-135500000D03*
X158200000Y-136500000D03*
X158200000Y-137500000D03*
X158200000Y-138500000D03*
X158200000Y-139500000D03*
%TD*%
%TO.C,C9*%
G36*
G01*
X108110000Y-73927500D02*
X108110000Y-74272500D01*
G75*
G02*
X107962500Y-74420000I-147500J0D01*
G01*
X107667500Y-74420000D01*
G75*
G02*
X107520000Y-74272500I0J147500D01*
G01*
X107520000Y-73927500D01*
G75*
G02*
X107667500Y-73780000I147500J0D01*
G01*
X107962500Y-73780000D01*
G75*
G02*
X108110000Y-73927500I0J-147500D01*
G01*
G37*
G36*
G01*
X109080000Y-73927500D02*
X109080000Y-74272500D01*
G75*
G02*
X108932500Y-74420000I-147500J0D01*
G01*
X108637500Y-74420000D01*
G75*
G02*
X108490000Y-74272500I0J147500D01*
G01*
X108490000Y-73927500D01*
G75*
G02*
X108637500Y-73780000I147500J0D01*
G01*
X108932500Y-73780000D01*
G75*
G02*
X109080000Y-73927500I0J-147500D01*
G01*
G37*
%TD*%
%TO.C,C6*%
G36*
G01*
X108110000Y-76527500D02*
X108110000Y-76872500D01*
G75*
G02*
X107962500Y-77020000I-147500J0D01*
G01*
X107667500Y-77020000D01*
G75*
G02*
X107520000Y-76872500I0J147500D01*
G01*
X107520000Y-76527500D01*
G75*
G02*
X107667500Y-76380000I147500J0D01*
G01*
X107962500Y-76380000D01*
G75*
G02*
X108110000Y-76527500I0J-147500D01*
G01*
G37*
G36*
G01*
X109080000Y-76527500D02*
X109080000Y-76872500D01*
G75*
G02*
X108932500Y-77020000I-147500J0D01*
G01*
X108637500Y-77020000D01*
G75*
G02*
X108490000Y-76872500I0J147500D01*
G01*
X108490000Y-76527500D01*
G75*
G02*
X108637500Y-76380000I147500J0D01*
G01*
X108932500Y-76380000D01*
G75*
G02*
X109080000Y-76527500I0J-147500D01*
G01*
G37*
%TD*%
%TO.C,C3*%
G36*
G01*
X107010000Y-83827500D02*
X107010000Y-84172500D01*
G75*
G02*
X106862500Y-84320000I-147500J0D01*
G01*
X106567500Y-84320000D01*
G75*
G02*
X106420000Y-84172500I0J147500D01*
G01*
X106420000Y-83827500D01*
G75*
G02*
X106567500Y-83680000I147500J0D01*
G01*
X106862500Y-83680000D01*
G75*
G02*
X107010000Y-83827500I0J-147500D01*
G01*
G37*
G36*
G01*
X107980000Y-83827500D02*
X107980000Y-84172500D01*
G75*
G02*
X107832500Y-84320000I-147500J0D01*
G01*
X107537500Y-84320000D01*
G75*
G02*
X107390000Y-84172500I0J147500D01*
G01*
X107390000Y-83827500D01*
G75*
G02*
X107537500Y-83680000I147500J0D01*
G01*
X107832500Y-83680000D01*
G75*
G02*
X107980000Y-83827500I0J-147500D01*
G01*
G37*
%TD*%
%TO.C,C1*%
G36*
G01*
X106995000Y-81627500D02*
X106995000Y-81972500D01*
G75*
G02*
X106847500Y-82120000I-147500J0D01*
G01*
X106552500Y-82120000D01*
G75*
G02*
X106405000Y-81972500I0J147500D01*
G01*
X106405000Y-81627500D01*
G75*
G02*
X106552500Y-81480000I147500J0D01*
G01*
X106847500Y-81480000D01*
G75*
G02*
X106995000Y-81627500I0J-147500D01*
G01*
G37*
G36*
G01*
X107965000Y-81627500D02*
X107965000Y-81972500D01*
G75*
G02*
X107817500Y-82120000I-147500J0D01*
G01*
X107522500Y-82120000D01*
G75*
G02*
X107375000Y-81972500I0J147500D01*
G01*
X107375000Y-81627500D01*
G75*
G02*
X107522500Y-81480000I147500J0D01*
G01*
X107817500Y-81480000D01*
G75*
G02*
X107965000Y-81627500I0J-147500D01*
G01*
G37*
%TD*%
%TO.C,C2*%
G36*
G01*
X111672500Y-86710000D02*
X111327500Y-86710000D01*
G75*
G02*
X111180000Y-86562500I0J147500D01*
G01*
X111180000Y-86267500D01*
G75*
G02*
X111327500Y-86120000I147500J0D01*
G01*
X111672500Y-86120000D01*
G75*
G02*
X111820000Y-86267500I0J-147500D01*
G01*
X111820000Y-86562500D01*
G75*
G02*
X111672500Y-86710000I-147500J0D01*
G01*
G37*
G36*
G01*
X111672500Y-87680000D02*
X111327500Y-87680000D01*
G75*
G02*
X111180000Y-87532500I0J147500D01*
G01*
X111180000Y-87237500D01*
G75*
G02*
X111327500Y-87090000I147500J0D01*
G01*
X111672500Y-87090000D01*
G75*
G02*
X111820000Y-87237500I0J-147500D01*
G01*
X111820000Y-87532500D01*
G75*
G02*
X111672500Y-87680000I-147500J0D01*
G01*
G37*
%TD*%
%TO.C,C33*%
G36*
G01*
X116990000Y-66772500D02*
X116990000Y-66427500D01*
G75*
G02*
X117137500Y-66280000I147500J0D01*
G01*
X117432500Y-66280000D01*
G75*
G02*
X117580000Y-66427500I0J-147500D01*
G01*
X117580000Y-66772500D01*
G75*
G02*
X117432500Y-66920000I-147500J0D01*
G01*
X117137500Y-66920000D01*
G75*
G02*
X116990000Y-66772500I0J147500D01*
G01*
G37*
G36*
G01*
X116020000Y-66772500D02*
X116020000Y-66427500D01*
G75*
G02*
X116167500Y-66280000I147500J0D01*
G01*
X116462500Y-66280000D01*
G75*
G02*
X116610000Y-66427500I0J-147500D01*
G01*
X116610000Y-66772500D01*
G75*
G02*
X116462500Y-66920000I-147500J0D01*
G01*
X116167500Y-66920000D01*
G75*
G02*
X116020000Y-66772500I0J147500D01*
G01*
G37*
%TD*%
%TO.C,C32*%
G36*
G01*
X123490000Y-66772500D02*
X123490000Y-66427500D01*
G75*
G02*
X123637500Y-66280000I147500J0D01*
G01*
X123932500Y-66280000D01*
G75*
G02*
X124080000Y-66427500I0J-147500D01*
G01*
X124080000Y-66772500D01*
G75*
G02*
X123932500Y-66920000I-147500J0D01*
G01*
X123637500Y-66920000D01*
G75*
G02*
X123490000Y-66772500I0J147500D01*
G01*
G37*
G36*
G01*
X122520000Y-66772500D02*
X122520000Y-66427500D01*
G75*
G02*
X122667500Y-66280000I147500J0D01*
G01*
X122962500Y-66280000D01*
G75*
G02*
X123110000Y-66427500I0J-147500D01*
G01*
X123110000Y-66772500D01*
G75*
G02*
X122962500Y-66920000I-147500J0D01*
G01*
X122667500Y-66920000D01*
G75*
G02*
X122520000Y-66772500I0J147500D01*
G01*
G37*
%TD*%
%TO.C,C31*%
G36*
G01*
X128490000Y-66772500D02*
X128490000Y-66427500D01*
G75*
G02*
X128637500Y-66280000I147500J0D01*
G01*
X128932500Y-66280000D01*
G75*
G02*
X129080000Y-66427500I0J-147500D01*
G01*
X129080000Y-66772500D01*
G75*
G02*
X128932500Y-66920000I-147500J0D01*
G01*
X128637500Y-66920000D01*
G75*
G02*
X128490000Y-66772500I0J147500D01*
G01*
G37*
G36*
G01*
X127520000Y-66772500D02*
X127520000Y-66427500D01*
G75*
G02*
X127667500Y-66280000I147500J0D01*
G01*
X127962500Y-66280000D01*
G75*
G02*
X128110000Y-66427500I0J-147500D01*
G01*
X128110000Y-66772500D01*
G75*
G02*
X127962500Y-66920000I-147500J0D01*
G01*
X127667500Y-66920000D01*
G75*
G02*
X127520000Y-66772500I0J147500D01*
G01*
G37*
%TD*%
%TO.C,C30*%
G36*
G01*
X139027500Y-72090000D02*
X139372500Y-72090000D01*
G75*
G02*
X139520000Y-72237500I0J-147500D01*
G01*
X139520000Y-72532500D01*
G75*
G02*
X139372500Y-72680000I-147500J0D01*
G01*
X139027500Y-72680000D01*
G75*
G02*
X138880000Y-72532500I0J147500D01*
G01*
X138880000Y-72237500D01*
G75*
G02*
X139027500Y-72090000I147500J0D01*
G01*
G37*
G36*
G01*
X139027500Y-71120000D02*
X139372500Y-71120000D01*
G75*
G02*
X139520000Y-71267500I0J-147500D01*
G01*
X139520000Y-71562500D01*
G75*
G02*
X139372500Y-71710000I-147500J0D01*
G01*
X139027500Y-71710000D01*
G75*
G02*
X138880000Y-71562500I0J147500D01*
G01*
X138880000Y-71267500D01*
G75*
G02*
X139027500Y-71120000I147500J0D01*
G01*
G37*
%TD*%
%TO.C,C29*%
G36*
G01*
X139027500Y-78590000D02*
X139372500Y-78590000D01*
G75*
G02*
X139520000Y-78737500I0J-147500D01*
G01*
X139520000Y-79032500D01*
G75*
G02*
X139372500Y-79180000I-147500J0D01*
G01*
X139027500Y-79180000D01*
G75*
G02*
X138880000Y-79032500I0J147500D01*
G01*
X138880000Y-78737500D01*
G75*
G02*
X139027500Y-78590000I147500J0D01*
G01*
G37*
G36*
G01*
X139027500Y-77620000D02*
X139372500Y-77620000D01*
G75*
G02*
X139520000Y-77767500I0J-147500D01*
G01*
X139520000Y-78062500D01*
G75*
G02*
X139372500Y-78210000I-147500J0D01*
G01*
X139027500Y-78210000D01*
G75*
G02*
X138880000Y-78062500I0J147500D01*
G01*
X138880000Y-77767500D01*
G75*
G02*
X139027500Y-77620000I147500J0D01*
G01*
G37*
%TD*%
%TO.C,C28*%
G36*
G01*
X139027500Y-84090000D02*
X139372500Y-84090000D01*
G75*
G02*
X139520000Y-84237500I0J-147500D01*
G01*
X139520000Y-84532500D01*
G75*
G02*
X139372500Y-84680000I-147500J0D01*
G01*
X139027500Y-84680000D01*
G75*
G02*
X138880000Y-84532500I0J147500D01*
G01*
X138880000Y-84237500D01*
G75*
G02*
X139027500Y-84090000I147500J0D01*
G01*
G37*
G36*
G01*
X139027500Y-83120000D02*
X139372500Y-83120000D01*
G75*
G02*
X139520000Y-83267500I0J-147500D01*
G01*
X139520000Y-83562500D01*
G75*
G02*
X139372500Y-83710000I-147500J0D01*
G01*
X139027500Y-83710000D01*
G75*
G02*
X138880000Y-83562500I0J147500D01*
G01*
X138880000Y-83267500D01*
G75*
G02*
X139027500Y-83120000I147500J0D01*
G01*
G37*
%TD*%
%TO.C,C27*%
G36*
G01*
X133610000Y-94127500D02*
X133610000Y-94472500D01*
G75*
G02*
X133462500Y-94620000I-147500J0D01*
G01*
X133167500Y-94620000D01*
G75*
G02*
X133020000Y-94472500I0J147500D01*
G01*
X133020000Y-94127500D01*
G75*
G02*
X133167500Y-93980000I147500J0D01*
G01*
X133462500Y-93980000D01*
G75*
G02*
X133610000Y-94127500I0J-147500D01*
G01*
G37*
G36*
G01*
X134580000Y-94127500D02*
X134580000Y-94472500D01*
G75*
G02*
X134432500Y-94620000I-147500J0D01*
G01*
X134137500Y-94620000D01*
G75*
G02*
X133990000Y-94472500I0J147500D01*
G01*
X133990000Y-94127500D01*
G75*
G02*
X134137500Y-93980000I147500J0D01*
G01*
X134432500Y-93980000D01*
G75*
G02*
X134580000Y-94127500I0J-147500D01*
G01*
G37*
%TD*%
%TO.C,C26*%
G36*
G01*
X128610000Y-94127500D02*
X128610000Y-94472500D01*
G75*
G02*
X128462500Y-94620000I-147500J0D01*
G01*
X128167500Y-94620000D01*
G75*
G02*
X128020000Y-94472500I0J147500D01*
G01*
X128020000Y-94127500D01*
G75*
G02*
X128167500Y-93980000I147500J0D01*
G01*
X128462500Y-93980000D01*
G75*
G02*
X128610000Y-94127500I0J-147500D01*
G01*
G37*
G36*
G01*
X129580000Y-94127500D02*
X129580000Y-94472500D01*
G75*
G02*
X129432500Y-94620000I-147500J0D01*
G01*
X129137500Y-94620000D01*
G75*
G02*
X128990000Y-94472500I0J147500D01*
G01*
X128990000Y-94127500D01*
G75*
G02*
X129137500Y-93980000I147500J0D01*
G01*
X129432500Y-93980000D01*
G75*
G02*
X129580000Y-94127500I0J-147500D01*
G01*
G37*
%TD*%
%TO.C,C25*%
G36*
G01*
X123625000Y-94127500D02*
X123625000Y-94472500D01*
G75*
G02*
X123477500Y-94620000I-147500J0D01*
G01*
X123182500Y-94620000D01*
G75*
G02*
X123035000Y-94472500I0J147500D01*
G01*
X123035000Y-94127500D01*
G75*
G02*
X123182500Y-93980000I147500J0D01*
G01*
X123477500Y-93980000D01*
G75*
G02*
X123625000Y-94127500I0J-147500D01*
G01*
G37*
G36*
G01*
X124595000Y-94127500D02*
X124595000Y-94472500D01*
G75*
G02*
X124447500Y-94620000I-147500J0D01*
G01*
X124152500Y-94620000D01*
G75*
G02*
X124005000Y-94472500I0J147500D01*
G01*
X124005000Y-94127500D01*
G75*
G02*
X124152500Y-93980000I147500J0D01*
G01*
X124447500Y-93980000D01*
G75*
G02*
X124595000Y-94127500I0J-147500D01*
G01*
G37*
%TD*%
%TO.C,C24*%
G36*
G01*
X117110000Y-94127500D02*
X117110000Y-94472500D01*
G75*
G02*
X116962500Y-94620000I-147500J0D01*
G01*
X116667500Y-94620000D01*
G75*
G02*
X116520000Y-94472500I0J147500D01*
G01*
X116520000Y-94127500D01*
G75*
G02*
X116667500Y-93980000I147500J0D01*
G01*
X116962500Y-93980000D01*
G75*
G02*
X117110000Y-94127500I0J-147500D01*
G01*
G37*
G36*
G01*
X118080000Y-94127500D02*
X118080000Y-94472500D01*
G75*
G02*
X117932500Y-94620000I-147500J0D01*
G01*
X117637500Y-94620000D01*
G75*
G02*
X117490000Y-94472500I0J147500D01*
G01*
X117490000Y-94127500D01*
G75*
G02*
X117637500Y-93980000I147500J0D01*
G01*
X117932500Y-93980000D01*
G75*
G02*
X118080000Y-94127500I0J-147500D01*
G01*
G37*
%TD*%
%TO.C,C23*%
G36*
G01*
X110472500Y-86710000D02*
X110127500Y-86710000D01*
G75*
G02*
X109980000Y-86562500I0J147500D01*
G01*
X109980000Y-86267500D01*
G75*
G02*
X110127500Y-86120000I147500J0D01*
G01*
X110472500Y-86120000D01*
G75*
G02*
X110620000Y-86267500I0J-147500D01*
G01*
X110620000Y-86562500D01*
G75*
G02*
X110472500Y-86710000I-147500J0D01*
G01*
G37*
G36*
G01*
X110472500Y-87680000D02*
X110127500Y-87680000D01*
G75*
G02*
X109980000Y-87532500I0J147500D01*
G01*
X109980000Y-87237500D01*
G75*
G02*
X110127500Y-87090000I147500J0D01*
G01*
X110472500Y-87090000D01*
G75*
G02*
X110620000Y-87237500I0J-147500D01*
G01*
X110620000Y-87532500D01*
G75*
G02*
X110472500Y-87680000I-147500J0D01*
G01*
G37*
%TD*%
%TO.C,C22*%
G36*
G01*
X111672500Y-79210000D02*
X111327500Y-79210000D01*
G75*
G02*
X111180000Y-79062500I0J147500D01*
G01*
X111180000Y-78767500D01*
G75*
G02*
X111327500Y-78620000I147500J0D01*
G01*
X111672500Y-78620000D01*
G75*
G02*
X111820000Y-78767500I0J-147500D01*
G01*
X111820000Y-79062500D01*
G75*
G02*
X111672500Y-79210000I-147500J0D01*
G01*
G37*
G36*
G01*
X111672500Y-80180000D02*
X111327500Y-80180000D01*
G75*
G02*
X111180000Y-80032500I0J147500D01*
G01*
X111180000Y-79737500D01*
G75*
G02*
X111327500Y-79590000I147500J0D01*
G01*
X111672500Y-79590000D01*
G75*
G02*
X111820000Y-79737500I0J-147500D01*
G01*
X111820000Y-80032500D01*
G75*
G02*
X111672500Y-80180000I-147500J0D01*
G01*
G37*
%TD*%
%TO.C,C21*%
G36*
G01*
X111575000Y-196275000D02*
X112825000Y-196275000D01*
G75*
G02*
X113075000Y-196525000I0J-250000D01*
G01*
X113075000Y-197275000D01*
G75*
G02*
X112825000Y-197525000I-250000J0D01*
G01*
X111575000Y-197525000D01*
G75*
G02*
X111325000Y-197275000I0J250000D01*
G01*
X111325000Y-196525000D01*
G75*
G02*
X111575000Y-196275000I250000J0D01*
G01*
G37*
G36*
G01*
X111575000Y-193475000D02*
X112825000Y-193475000D01*
G75*
G02*
X113075000Y-193725000I0J-250000D01*
G01*
X113075000Y-194475000D01*
G75*
G02*
X112825000Y-194725000I-250000J0D01*
G01*
X111575000Y-194725000D01*
G75*
G02*
X111325000Y-194475000I0J250000D01*
G01*
X111325000Y-193725000D01*
G75*
G02*
X111575000Y-193475000I250000J0D01*
G01*
G37*
%TD*%
%TO.C,C20*%
G36*
G01*
X64375000Y-196275000D02*
X65625000Y-196275000D01*
G75*
G02*
X65875000Y-196525000I0J-250000D01*
G01*
X65875000Y-197275000D01*
G75*
G02*
X65625000Y-197525000I-250000J0D01*
G01*
X64375000Y-197525000D01*
G75*
G02*
X64125000Y-197275000I0J250000D01*
G01*
X64125000Y-196525000D01*
G75*
G02*
X64375000Y-196275000I250000J0D01*
G01*
G37*
G36*
G01*
X64375000Y-193475000D02*
X65625000Y-193475000D01*
G75*
G02*
X65875000Y-193725000I0J-250000D01*
G01*
X65875000Y-194475000D01*
G75*
G02*
X65625000Y-194725000I-250000J0D01*
G01*
X64375000Y-194725000D01*
G75*
G02*
X64125000Y-194475000I0J250000D01*
G01*
X64125000Y-193725000D01*
G75*
G02*
X64375000Y-193475000I250000J0D01*
G01*
G37*
%TD*%
%TO.C,C8*%
G36*
G01*
X54425000Y-183775000D02*
X54425000Y-185025000D01*
G75*
G02*
X54175000Y-185275000I-250000J0D01*
G01*
X53425000Y-185275000D01*
G75*
G02*
X53175000Y-185025000I0J250000D01*
G01*
X53175000Y-183775000D01*
G75*
G02*
X53425000Y-183525000I250000J0D01*
G01*
X54175000Y-183525000D01*
G75*
G02*
X54425000Y-183775000I0J-250000D01*
G01*
G37*
G36*
G01*
X57225000Y-183775000D02*
X57225000Y-185025000D01*
G75*
G02*
X56975000Y-185275000I-250000J0D01*
G01*
X56225000Y-185275000D01*
G75*
G02*
X55975000Y-185025000I0J250000D01*
G01*
X55975000Y-183775000D01*
G75*
G02*
X56225000Y-183525000I250000J0D01*
G01*
X56975000Y-183525000D01*
G75*
G02*
X57225000Y-183775000I0J-250000D01*
G01*
G37*
%TD*%
%TO.C,C7*%
G36*
G01*
X54425000Y-149775000D02*
X54425000Y-151025000D01*
G75*
G02*
X54175000Y-151275000I-250000J0D01*
G01*
X53425000Y-151275000D01*
G75*
G02*
X53175000Y-151025000I0J250000D01*
G01*
X53175000Y-149775000D01*
G75*
G02*
X53425000Y-149525000I250000J0D01*
G01*
X54175000Y-149525000D01*
G75*
G02*
X54425000Y-149775000I0J-250000D01*
G01*
G37*
G36*
G01*
X57225000Y-149775000D02*
X57225000Y-151025000D01*
G75*
G02*
X56975000Y-151275000I-250000J0D01*
G01*
X56225000Y-151275000D01*
G75*
G02*
X55975000Y-151025000I0J250000D01*
G01*
X55975000Y-149775000D01*
G75*
G02*
X56225000Y-149525000I250000J0D01*
G01*
X56975000Y-149525000D01*
G75*
G02*
X57225000Y-149775000I0J-250000D01*
G01*
G37*
%TD*%
%TO.C,C17*%
G36*
G01*
X72275000Y-117725000D02*
X72275000Y-116475000D01*
G75*
G02*
X72525000Y-116225000I250000J0D01*
G01*
X73275000Y-116225000D01*
G75*
G02*
X73525000Y-116475000I0J-250000D01*
G01*
X73525000Y-117725000D01*
G75*
G02*
X73275000Y-117975000I-250000J0D01*
G01*
X72525000Y-117975000D01*
G75*
G02*
X72275000Y-117725000I0J250000D01*
G01*
G37*
G36*
G01*
X69475000Y-117725000D02*
X69475000Y-116475000D01*
G75*
G02*
X69725000Y-116225000I250000J0D01*
G01*
X70475000Y-116225000D01*
G75*
G02*
X70725000Y-116475000I0J-250000D01*
G01*
X70725000Y-117725000D01*
G75*
G02*
X70475000Y-117975000I-250000J0D01*
G01*
X69725000Y-117975000D01*
G75*
G02*
X69475000Y-117725000I0J250000D01*
G01*
G37*
%TD*%
%TO.C,C16*%
G36*
G01*
X72275000Y-100725000D02*
X72275000Y-99475000D01*
G75*
G02*
X72525000Y-99225000I250000J0D01*
G01*
X73275000Y-99225000D01*
G75*
G02*
X73525000Y-99475000I0J-250000D01*
G01*
X73525000Y-100725000D01*
G75*
G02*
X73275000Y-100975000I-250000J0D01*
G01*
X72525000Y-100975000D01*
G75*
G02*
X72275000Y-100725000I0J250000D01*
G01*
G37*
G36*
G01*
X69475000Y-100725000D02*
X69475000Y-99475000D01*
G75*
G02*
X69725000Y-99225000I250000J0D01*
G01*
X70475000Y-99225000D01*
G75*
G02*
X70725000Y-99475000I0J-250000D01*
G01*
X70725000Y-100725000D01*
G75*
G02*
X70475000Y-100975000I-250000J0D01*
G01*
X69725000Y-100975000D01*
G75*
G02*
X69475000Y-100725000I0J250000D01*
G01*
G37*
%TD*%
%TO.C,C10*%
G36*
G01*
X81850000Y-66100000D02*
X80750000Y-66100000D01*
G75*
G02*
X80500000Y-65850000I0J250000D01*
G01*
X80500000Y-63350000D01*
G75*
G02*
X80750000Y-63100000I250000J0D01*
G01*
X81850000Y-63100000D01*
G75*
G02*
X82100000Y-63350000I0J-250000D01*
G01*
X82100000Y-65850000D01*
G75*
G02*
X81850000Y-66100000I-250000J0D01*
G01*
G37*
G36*
G01*
X81850000Y-70500000D02*
X80750000Y-70500000D01*
G75*
G02*
X80500000Y-70250000I0J250000D01*
G01*
X80500000Y-67750000D01*
G75*
G02*
X80750000Y-67500000I250000J0D01*
G01*
X81850000Y-67500000D01*
G75*
G02*
X82100000Y-67750000I0J-250000D01*
G01*
X82100000Y-70250000D01*
G75*
G02*
X81850000Y-70500000I-250000J0D01*
G01*
G37*
%TD*%
%TO.C,C15*%
G36*
G01*
X77425000Y-83025000D02*
X76175000Y-83025000D01*
G75*
G02*
X75925000Y-82775000I0J250000D01*
G01*
X75925000Y-82025000D01*
G75*
G02*
X76175000Y-81775000I250000J0D01*
G01*
X77425000Y-81775000D01*
G75*
G02*
X77675000Y-82025000I0J-250000D01*
G01*
X77675000Y-82775000D01*
G75*
G02*
X77425000Y-83025000I-250000J0D01*
G01*
G37*
G36*
G01*
X77425000Y-85825000D02*
X76175000Y-85825000D01*
G75*
G02*
X75925000Y-85575000I0J250000D01*
G01*
X75925000Y-84825000D01*
G75*
G02*
X76175000Y-84575000I250000J0D01*
G01*
X77425000Y-84575000D01*
G75*
G02*
X77675000Y-84825000I0J-250000D01*
G01*
X77675000Y-85575000D01*
G75*
G02*
X77425000Y-85825000I-250000J0D01*
G01*
G37*
%TD*%
%TO.C,C14*%
G36*
G01*
X77425000Y-66025000D02*
X76175000Y-66025000D01*
G75*
G02*
X75925000Y-65775000I0J250000D01*
G01*
X75925000Y-65025000D01*
G75*
G02*
X76175000Y-64775000I250000J0D01*
G01*
X77425000Y-64775000D01*
G75*
G02*
X77675000Y-65025000I0J-250000D01*
G01*
X77675000Y-65775000D01*
G75*
G02*
X77425000Y-66025000I-250000J0D01*
G01*
G37*
G36*
G01*
X77425000Y-68825000D02*
X76175000Y-68825000D01*
G75*
G02*
X75925000Y-68575000I0J250000D01*
G01*
X75925000Y-67825000D01*
G75*
G02*
X76175000Y-67575000I250000J0D01*
G01*
X77425000Y-67575000D01*
G75*
G02*
X77675000Y-67825000I0J-250000D01*
G01*
X77675000Y-68575000D01*
G75*
G02*
X77425000Y-68825000I-250000J0D01*
G01*
G37*
%TD*%
%TO.C,C19*%
G36*
G01*
X66925000Y-83725000D02*
X65675000Y-83725000D01*
G75*
G02*
X65425000Y-83475000I0J250000D01*
G01*
X65425000Y-82725000D01*
G75*
G02*
X65675000Y-82475000I250000J0D01*
G01*
X66925000Y-82475000D01*
G75*
G02*
X67175000Y-82725000I0J-250000D01*
G01*
X67175000Y-83475000D01*
G75*
G02*
X66925000Y-83725000I-250000J0D01*
G01*
G37*
G36*
G01*
X66925000Y-86525000D02*
X65675000Y-86525000D01*
G75*
G02*
X65425000Y-86275000I0J250000D01*
G01*
X65425000Y-85525000D01*
G75*
G02*
X65675000Y-85275000I250000J0D01*
G01*
X66925000Y-85275000D01*
G75*
G02*
X67175000Y-85525000I0J-250000D01*
G01*
X67175000Y-86275000D01*
G75*
G02*
X66925000Y-86525000I-250000J0D01*
G01*
G37*
%TD*%
%TO.C,C18*%
G36*
G01*
X66925000Y-66725000D02*
X65675000Y-66725000D01*
G75*
G02*
X65425000Y-66475000I0J250000D01*
G01*
X65425000Y-65725000D01*
G75*
G02*
X65675000Y-65475000I250000J0D01*
G01*
X66925000Y-65475000D01*
G75*
G02*
X67175000Y-65725000I0J-250000D01*
G01*
X67175000Y-66475000D01*
G75*
G02*
X66925000Y-66725000I-250000J0D01*
G01*
G37*
G36*
G01*
X66925000Y-69525000D02*
X65675000Y-69525000D01*
G75*
G02*
X65425000Y-69275000I0J250000D01*
G01*
X65425000Y-68525000D01*
G75*
G02*
X65675000Y-68275000I250000J0D01*
G01*
X66925000Y-68275000D01*
G75*
G02*
X67175000Y-68525000I0J-250000D01*
G01*
X67175000Y-69275000D01*
G75*
G02*
X66925000Y-69525000I-250000J0D01*
G01*
G37*
%TD*%
D15*
%TO.C,L1*%
X90200000Y-193050000D03*
X90200000Y-202950000D03*
%TD*%
D16*
%TO.C,Y2*%
X110800000Y-76650000D03*
X110800000Y-74150000D03*
%TD*%
D17*
%TO.C,Y1*%
X111150000Y-81800000D03*
X111150000Y-84000000D03*
X109450000Y-84000000D03*
X109450000Y-81800000D03*
%TD*%
%TO.C,U8*%
G36*
G01*
X53700000Y-180995000D02*
X53700000Y-181295000D01*
G75*
G02*
X53550000Y-181445000I-150000J0D01*
G01*
X51900000Y-181445000D01*
G75*
G02*
X51750000Y-181295000I0J150000D01*
G01*
X51750000Y-180995000D01*
G75*
G02*
X51900000Y-180845000I150000J0D01*
G01*
X53550000Y-180845000D01*
G75*
G02*
X53700000Y-180995000I0J-150000D01*
G01*
G37*
G36*
G01*
X53700000Y-179725000D02*
X53700000Y-180025000D01*
G75*
G02*
X53550000Y-180175000I-150000J0D01*
G01*
X51900000Y-180175000D01*
G75*
G02*
X51750000Y-180025000I0J150000D01*
G01*
X51750000Y-179725000D01*
G75*
G02*
X51900000Y-179575000I150000J0D01*
G01*
X53550000Y-179575000D01*
G75*
G02*
X53700000Y-179725000I0J-150000D01*
G01*
G37*
G36*
G01*
X53700000Y-178455000D02*
X53700000Y-178755000D01*
G75*
G02*
X53550000Y-178905000I-150000J0D01*
G01*
X51900000Y-178905000D01*
G75*
G02*
X51750000Y-178755000I0J150000D01*
G01*
X51750000Y-178455000D01*
G75*
G02*
X51900000Y-178305000I150000J0D01*
G01*
X53550000Y-178305000D01*
G75*
G02*
X53700000Y-178455000I0J-150000D01*
G01*
G37*
G36*
G01*
X53700000Y-177185000D02*
X53700000Y-177485000D01*
G75*
G02*
X53550000Y-177635000I-150000J0D01*
G01*
X51900000Y-177635000D01*
G75*
G02*
X51750000Y-177485000I0J150000D01*
G01*
X51750000Y-177185000D01*
G75*
G02*
X51900000Y-177035000I150000J0D01*
G01*
X53550000Y-177035000D01*
G75*
G02*
X53700000Y-177185000I0J-150000D01*
G01*
G37*
G36*
G01*
X53700000Y-175915000D02*
X53700000Y-176215000D01*
G75*
G02*
X53550000Y-176365000I-150000J0D01*
G01*
X51900000Y-176365000D01*
G75*
G02*
X51750000Y-176215000I0J150000D01*
G01*
X51750000Y-175915000D01*
G75*
G02*
X51900000Y-175765000I150000J0D01*
G01*
X53550000Y-175765000D01*
G75*
G02*
X53700000Y-175915000I0J-150000D01*
G01*
G37*
G36*
G01*
X53700000Y-174645000D02*
X53700000Y-174945000D01*
G75*
G02*
X53550000Y-175095000I-150000J0D01*
G01*
X51900000Y-175095000D01*
G75*
G02*
X51750000Y-174945000I0J150000D01*
G01*
X51750000Y-174645000D01*
G75*
G02*
X51900000Y-174495000I150000J0D01*
G01*
X53550000Y-174495000D01*
G75*
G02*
X53700000Y-174645000I0J-150000D01*
G01*
G37*
G36*
G01*
X53700000Y-173375000D02*
X53700000Y-173675000D01*
G75*
G02*
X53550000Y-173825000I-150000J0D01*
G01*
X51900000Y-173825000D01*
G75*
G02*
X51750000Y-173675000I0J150000D01*
G01*
X51750000Y-173375000D01*
G75*
G02*
X51900000Y-173225000I150000J0D01*
G01*
X53550000Y-173225000D01*
G75*
G02*
X53700000Y-173375000I0J-150000D01*
G01*
G37*
G36*
G01*
X53700000Y-172105000D02*
X53700000Y-172405000D01*
G75*
G02*
X53550000Y-172555000I-150000J0D01*
G01*
X51900000Y-172555000D01*
G75*
G02*
X51750000Y-172405000I0J150000D01*
G01*
X51750000Y-172105000D01*
G75*
G02*
X51900000Y-171955000I150000J0D01*
G01*
X53550000Y-171955000D01*
G75*
G02*
X53700000Y-172105000I0J-150000D01*
G01*
G37*
G36*
G01*
X58650000Y-172105000D02*
X58650000Y-172405000D01*
G75*
G02*
X58500000Y-172555000I-150000J0D01*
G01*
X56850000Y-172555000D01*
G75*
G02*
X56700000Y-172405000I0J150000D01*
G01*
X56700000Y-172105000D01*
G75*
G02*
X56850000Y-171955000I150000J0D01*
G01*
X58500000Y-171955000D01*
G75*
G02*
X58650000Y-172105000I0J-150000D01*
G01*
G37*
G36*
G01*
X58650000Y-173375000D02*
X58650000Y-173675000D01*
G75*
G02*
X58500000Y-173825000I-150000J0D01*
G01*
X56850000Y-173825000D01*
G75*
G02*
X56700000Y-173675000I0J150000D01*
G01*
X56700000Y-173375000D01*
G75*
G02*
X56850000Y-173225000I150000J0D01*
G01*
X58500000Y-173225000D01*
G75*
G02*
X58650000Y-173375000I0J-150000D01*
G01*
G37*
G36*
G01*
X58650000Y-174645000D02*
X58650000Y-174945000D01*
G75*
G02*
X58500000Y-175095000I-150000J0D01*
G01*
X56850000Y-175095000D01*
G75*
G02*
X56700000Y-174945000I0J150000D01*
G01*
X56700000Y-174645000D01*
G75*
G02*
X56850000Y-174495000I150000J0D01*
G01*
X58500000Y-174495000D01*
G75*
G02*
X58650000Y-174645000I0J-150000D01*
G01*
G37*
G36*
G01*
X58650000Y-175915000D02*
X58650000Y-176215000D01*
G75*
G02*
X58500000Y-176365000I-150000J0D01*
G01*
X56850000Y-176365000D01*
G75*
G02*
X56700000Y-176215000I0J150000D01*
G01*
X56700000Y-175915000D01*
G75*
G02*
X56850000Y-175765000I150000J0D01*
G01*
X58500000Y-175765000D01*
G75*
G02*
X58650000Y-175915000I0J-150000D01*
G01*
G37*
G36*
G01*
X58650000Y-177185000D02*
X58650000Y-177485000D01*
G75*
G02*
X58500000Y-177635000I-150000J0D01*
G01*
X56850000Y-177635000D01*
G75*
G02*
X56700000Y-177485000I0J150000D01*
G01*
X56700000Y-177185000D01*
G75*
G02*
X56850000Y-177035000I150000J0D01*
G01*
X58500000Y-177035000D01*
G75*
G02*
X58650000Y-177185000I0J-150000D01*
G01*
G37*
G36*
G01*
X58650000Y-178455000D02*
X58650000Y-178755000D01*
G75*
G02*
X58500000Y-178905000I-150000J0D01*
G01*
X56850000Y-178905000D01*
G75*
G02*
X56700000Y-178755000I0J150000D01*
G01*
X56700000Y-178455000D01*
G75*
G02*
X56850000Y-178305000I150000J0D01*
G01*
X58500000Y-178305000D01*
G75*
G02*
X58650000Y-178455000I0J-150000D01*
G01*
G37*
G36*
G01*
X58650000Y-179725000D02*
X58650000Y-180025000D01*
G75*
G02*
X58500000Y-180175000I-150000J0D01*
G01*
X56850000Y-180175000D01*
G75*
G02*
X56700000Y-180025000I0J150000D01*
G01*
X56700000Y-179725000D01*
G75*
G02*
X56850000Y-179575000I150000J0D01*
G01*
X58500000Y-179575000D01*
G75*
G02*
X58650000Y-179725000I0J-150000D01*
G01*
G37*
G36*
G01*
X58650000Y-180995000D02*
X58650000Y-181295000D01*
G75*
G02*
X58500000Y-181445000I-150000J0D01*
G01*
X56850000Y-181445000D01*
G75*
G02*
X56700000Y-181295000I0J150000D01*
G01*
X56700000Y-180995000D01*
G75*
G02*
X56850000Y-180845000I150000J0D01*
G01*
X58500000Y-180845000D01*
G75*
G02*
X58650000Y-180995000I0J-150000D01*
G01*
G37*
%TD*%
%TO.C,U7*%
G36*
G01*
X53700000Y-146995000D02*
X53700000Y-147295000D01*
G75*
G02*
X53550000Y-147445000I-150000J0D01*
G01*
X51900000Y-147445000D01*
G75*
G02*
X51750000Y-147295000I0J150000D01*
G01*
X51750000Y-146995000D01*
G75*
G02*
X51900000Y-146845000I150000J0D01*
G01*
X53550000Y-146845000D01*
G75*
G02*
X53700000Y-146995000I0J-150000D01*
G01*
G37*
G36*
G01*
X53700000Y-145725000D02*
X53700000Y-146025000D01*
G75*
G02*
X53550000Y-146175000I-150000J0D01*
G01*
X51900000Y-146175000D01*
G75*
G02*
X51750000Y-146025000I0J150000D01*
G01*
X51750000Y-145725000D01*
G75*
G02*
X51900000Y-145575000I150000J0D01*
G01*
X53550000Y-145575000D01*
G75*
G02*
X53700000Y-145725000I0J-150000D01*
G01*
G37*
G36*
G01*
X53700000Y-144455000D02*
X53700000Y-144755000D01*
G75*
G02*
X53550000Y-144905000I-150000J0D01*
G01*
X51900000Y-144905000D01*
G75*
G02*
X51750000Y-144755000I0J150000D01*
G01*
X51750000Y-144455000D01*
G75*
G02*
X51900000Y-144305000I150000J0D01*
G01*
X53550000Y-144305000D01*
G75*
G02*
X53700000Y-144455000I0J-150000D01*
G01*
G37*
G36*
G01*
X53700000Y-143185000D02*
X53700000Y-143485000D01*
G75*
G02*
X53550000Y-143635000I-150000J0D01*
G01*
X51900000Y-143635000D01*
G75*
G02*
X51750000Y-143485000I0J150000D01*
G01*
X51750000Y-143185000D01*
G75*
G02*
X51900000Y-143035000I150000J0D01*
G01*
X53550000Y-143035000D01*
G75*
G02*
X53700000Y-143185000I0J-150000D01*
G01*
G37*
G36*
G01*
X53700000Y-141915000D02*
X53700000Y-142215000D01*
G75*
G02*
X53550000Y-142365000I-150000J0D01*
G01*
X51900000Y-142365000D01*
G75*
G02*
X51750000Y-142215000I0J150000D01*
G01*
X51750000Y-141915000D01*
G75*
G02*
X51900000Y-141765000I150000J0D01*
G01*
X53550000Y-141765000D01*
G75*
G02*
X53700000Y-141915000I0J-150000D01*
G01*
G37*
G36*
G01*
X53700000Y-140645000D02*
X53700000Y-140945000D01*
G75*
G02*
X53550000Y-141095000I-150000J0D01*
G01*
X51900000Y-141095000D01*
G75*
G02*
X51750000Y-140945000I0J150000D01*
G01*
X51750000Y-140645000D01*
G75*
G02*
X51900000Y-140495000I150000J0D01*
G01*
X53550000Y-140495000D01*
G75*
G02*
X53700000Y-140645000I0J-150000D01*
G01*
G37*
G36*
G01*
X53700000Y-139375000D02*
X53700000Y-139675000D01*
G75*
G02*
X53550000Y-139825000I-150000J0D01*
G01*
X51900000Y-139825000D01*
G75*
G02*
X51750000Y-139675000I0J150000D01*
G01*
X51750000Y-139375000D01*
G75*
G02*
X51900000Y-139225000I150000J0D01*
G01*
X53550000Y-139225000D01*
G75*
G02*
X53700000Y-139375000I0J-150000D01*
G01*
G37*
G36*
G01*
X53700000Y-138105000D02*
X53700000Y-138405000D01*
G75*
G02*
X53550000Y-138555000I-150000J0D01*
G01*
X51900000Y-138555000D01*
G75*
G02*
X51750000Y-138405000I0J150000D01*
G01*
X51750000Y-138105000D01*
G75*
G02*
X51900000Y-137955000I150000J0D01*
G01*
X53550000Y-137955000D01*
G75*
G02*
X53700000Y-138105000I0J-150000D01*
G01*
G37*
G36*
G01*
X58650000Y-138105000D02*
X58650000Y-138405000D01*
G75*
G02*
X58500000Y-138555000I-150000J0D01*
G01*
X56850000Y-138555000D01*
G75*
G02*
X56700000Y-138405000I0J150000D01*
G01*
X56700000Y-138105000D01*
G75*
G02*
X56850000Y-137955000I150000J0D01*
G01*
X58500000Y-137955000D01*
G75*
G02*
X58650000Y-138105000I0J-150000D01*
G01*
G37*
G36*
G01*
X58650000Y-139375000D02*
X58650000Y-139675000D01*
G75*
G02*
X58500000Y-139825000I-150000J0D01*
G01*
X56850000Y-139825000D01*
G75*
G02*
X56700000Y-139675000I0J150000D01*
G01*
X56700000Y-139375000D01*
G75*
G02*
X56850000Y-139225000I150000J0D01*
G01*
X58500000Y-139225000D01*
G75*
G02*
X58650000Y-139375000I0J-150000D01*
G01*
G37*
G36*
G01*
X58650000Y-140645000D02*
X58650000Y-140945000D01*
G75*
G02*
X58500000Y-141095000I-150000J0D01*
G01*
X56850000Y-141095000D01*
G75*
G02*
X56700000Y-140945000I0J150000D01*
G01*
X56700000Y-140645000D01*
G75*
G02*
X56850000Y-140495000I150000J0D01*
G01*
X58500000Y-140495000D01*
G75*
G02*
X58650000Y-140645000I0J-150000D01*
G01*
G37*
G36*
G01*
X58650000Y-141915000D02*
X58650000Y-142215000D01*
G75*
G02*
X58500000Y-142365000I-150000J0D01*
G01*
X56850000Y-142365000D01*
G75*
G02*
X56700000Y-142215000I0J150000D01*
G01*
X56700000Y-141915000D01*
G75*
G02*
X56850000Y-141765000I150000J0D01*
G01*
X58500000Y-141765000D01*
G75*
G02*
X58650000Y-141915000I0J-150000D01*
G01*
G37*
G36*
G01*
X58650000Y-143185000D02*
X58650000Y-143485000D01*
G75*
G02*
X58500000Y-143635000I-150000J0D01*
G01*
X56850000Y-143635000D01*
G75*
G02*
X56700000Y-143485000I0J150000D01*
G01*
X56700000Y-143185000D01*
G75*
G02*
X56850000Y-143035000I150000J0D01*
G01*
X58500000Y-143035000D01*
G75*
G02*
X58650000Y-143185000I0J-150000D01*
G01*
G37*
G36*
G01*
X58650000Y-144455000D02*
X58650000Y-144755000D01*
G75*
G02*
X58500000Y-144905000I-150000J0D01*
G01*
X56850000Y-144905000D01*
G75*
G02*
X56700000Y-144755000I0J150000D01*
G01*
X56700000Y-144455000D01*
G75*
G02*
X56850000Y-144305000I150000J0D01*
G01*
X58500000Y-144305000D01*
G75*
G02*
X58650000Y-144455000I0J-150000D01*
G01*
G37*
G36*
G01*
X58650000Y-145725000D02*
X58650000Y-146025000D01*
G75*
G02*
X58500000Y-146175000I-150000J0D01*
G01*
X56850000Y-146175000D01*
G75*
G02*
X56700000Y-146025000I0J150000D01*
G01*
X56700000Y-145725000D01*
G75*
G02*
X56850000Y-145575000I150000J0D01*
G01*
X58500000Y-145575000D01*
G75*
G02*
X58650000Y-145725000I0J-150000D01*
G01*
G37*
G36*
G01*
X58650000Y-146995000D02*
X58650000Y-147295000D01*
G75*
G02*
X58500000Y-147445000I-150000J0D01*
G01*
X56850000Y-147445000D01*
G75*
G02*
X56700000Y-147295000I0J150000D01*
G01*
X56700000Y-146995000D01*
G75*
G02*
X56850000Y-146845000I150000J0D01*
G01*
X58500000Y-146845000D01*
G75*
G02*
X58650000Y-146995000I0J-150000D01*
G01*
G37*
%TD*%
D18*
%TO.C,U6*%
X76400000Y-186725000D03*
D19*
X79800000Y-195875000D03*
X78100000Y-195875000D03*
X76400000Y-195875000D03*
X74700000Y-195875000D03*
X73000000Y-195875000D03*
%TD*%
%TO.C,U5*%
G36*
G01*
X70000000Y-123155000D02*
X70000000Y-123455000D01*
G75*
G02*
X69850000Y-123605000I-150000J0D01*
G01*
X68200000Y-123605000D01*
G75*
G02*
X68050000Y-123455000I0J150000D01*
G01*
X68050000Y-123155000D01*
G75*
G02*
X68200000Y-123005000I150000J0D01*
G01*
X69850000Y-123005000D01*
G75*
G02*
X70000000Y-123155000I0J-150000D01*
G01*
G37*
G36*
G01*
X70000000Y-121885000D02*
X70000000Y-122185000D01*
G75*
G02*
X69850000Y-122335000I-150000J0D01*
G01*
X68200000Y-122335000D01*
G75*
G02*
X68050000Y-122185000I0J150000D01*
G01*
X68050000Y-121885000D01*
G75*
G02*
X68200000Y-121735000I150000J0D01*
G01*
X69850000Y-121735000D01*
G75*
G02*
X70000000Y-121885000I0J-150000D01*
G01*
G37*
G36*
G01*
X70000000Y-120615000D02*
X70000000Y-120915000D01*
G75*
G02*
X69850000Y-121065000I-150000J0D01*
G01*
X68200000Y-121065000D01*
G75*
G02*
X68050000Y-120915000I0J150000D01*
G01*
X68050000Y-120615000D01*
G75*
G02*
X68200000Y-120465000I150000J0D01*
G01*
X69850000Y-120465000D01*
G75*
G02*
X70000000Y-120615000I0J-150000D01*
G01*
G37*
G36*
G01*
X70000000Y-119345000D02*
X70000000Y-119645000D01*
G75*
G02*
X69850000Y-119795000I-150000J0D01*
G01*
X68200000Y-119795000D01*
G75*
G02*
X68050000Y-119645000I0J150000D01*
G01*
X68050000Y-119345000D01*
G75*
G02*
X68200000Y-119195000I150000J0D01*
G01*
X69850000Y-119195000D01*
G75*
G02*
X70000000Y-119345000I0J-150000D01*
G01*
G37*
G36*
G01*
X74950000Y-119345000D02*
X74950000Y-119645000D01*
G75*
G02*
X74800000Y-119795000I-150000J0D01*
G01*
X73150000Y-119795000D01*
G75*
G02*
X73000000Y-119645000I0J150000D01*
G01*
X73000000Y-119345000D01*
G75*
G02*
X73150000Y-119195000I150000J0D01*
G01*
X74800000Y-119195000D01*
G75*
G02*
X74950000Y-119345000I0J-150000D01*
G01*
G37*
G36*
G01*
X74950000Y-120615000D02*
X74950000Y-120915000D01*
G75*
G02*
X74800000Y-121065000I-150000J0D01*
G01*
X73150000Y-121065000D01*
G75*
G02*
X73000000Y-120915000I0J150000D01*
G01*
X73000000Y-120615000D01*
G75*
G02*
X73150000Y-120465000I150000J0D01*
G01*
X74800000Y-120465000D01*
G75*
G02*
X74950000Y-120615000I0J-150000D01*
G01*
G37*
G36*
G01*
X74950000Y-121885000D02*
X74950000Y-122185000D01*
G75*
G02*
X74800000Y-122335000I-150000J0D01*
G01*
X73150000Y-122335000D01*
G75*
G02*
X73000000Y-122185000I0J150000D01*
G01*
X73000000Y-121885000D01*
G75*
G02*
X73150000Y-121735000I150000J0D01*
G01*
X74800000Y-121735000D01*
G75*
G02*
X74950000Y-121885000I0J-150000D01*
G01*
G37*
G36*
G01*
X74950000Y-123155000D02*
X74950000Y-123455000D01*
G75*
G02*
X74800000Y-123605000I-150000J0D01*
G01*
X73150000Y-123605000D01*
G75*
G02*
X73000000Y-123455000I0J150000D01*
G01*
X73000000Y-123155000D01*
G75*
G02*
X73150000Y-123005000I150000J0D01*
G01*
X74800000Y-123005000D01*
G75*
G02*
X74950000Y-123155000I0J-150000D01*
G01*
G37*
%TD*%
%TO.C,U4*%
G36*
G01*
X70000000Y-106155000D02*
X70000000Y-106455000D01*
G75*
G02*
X69850000Y-106605000I-150000J0D01*
G01*
X68200000Y-106605000D01*
G75*
G02*
X68050000Y-106455000I0J150000D01*
G01*
X68050000Y-106155000D01*
G75*
G02*
X68200000Y-106005000I150000J0D01*
G01*
X69850000Y-106005000D01*
G75*
G02*
X70000000Y-106155000I0J-150000D01*
G01*
G37*
G36*
G01*
X70000000Y-104885000D02*
X70000000Y-105185000D01*
G75*
G02*
X69850000Y-105335000I-150000J0D01*
G01*
X68200000Y-105335000D01*
G75*
G02*
X68050000Y-105185000I0J150000D01*
G01*
X68050000Y-104885000D01*
G75*
G02*
X68200000Y-104735000I150000J0D01*
G01*
X69850000Y-104735000D01*
G75*
G02*
X70000000Y-104885000I0J-150000D01*
G01*
G37*
G36*
G01*
X70000000Y-103615000D02*
X70000000Y-103915000D01*
G75*
G02*
X69850000Y-104065000I-150000J0D01*
G01*
X68200000Y-104065000D01*
G75*
G02*
X68050000Y-103915000I0J150000D01*
G01*
X68050000Y-103615000D01*
G75*
G02*
X68200000Y-103465000I150000J0D01*
G01*
X69850000Y-103465000D01*
G75*
G02*
X70000000Y-103615000I0J-150000D01*
G01*
G37*
G36*
G01*
X70000000Y-102345000D02*
X70000000Y-102645000D01*
G75*
G02*
X69850000Y-102795000I-150000J0D01*
G01*
X68200000Y-102795000D01*
G75*
G02*
X68050000Y-102645000I0J150000D01*
G01*
X68050000Y-102345000D01*
G75*
G02*
X68200000Y-102195000I150000J0D01*
G01*
X69850000Y-102195000D01*
G75*
G02*
X70000000Y-102345000I0J-150000D01*
G01*
G37*
G36*
G01*
X74950000Y-102345000D02*
X74950000Y-102645000D01*
G75*
G02*
X74800000Y-102795000I-150000J0D01*
G01*
X73150000Y-102795000D01*
G75*
G02*
X73000000Y-102645000I0J150000D01*
G01*
X73000000Y-102345000D01*
G75*
G02*
X73150000Y-102195000I150000J0D01*
G01*
X74800000Y-102195000D01*
G75*
G02*
X74950000Y-102345000I0J-150000D01*
G01*
G37*
G36*
G01*
X74950000Y-103615000D02*
X74950000Y-103915000D01*
G75*
G02*
X74800000Y-104065000I-150000J0D01*
G01*
X73150000Y-104065000D01*
G75*
G02*
X73000000Y-103915000I0J150000D01*
G01*
X73000000Y-103615000D01*
G75*
G02*
X73150000Y-103465000I150000J0D01*
G01*
X74800000Y-103465000D01*
G75*
G02*
X74950000Y-103615000I0J-150000D01*
G01*
G37*
G36*
G01*
X74950000Y-104885000D02*
X74950000Y-105185000D01*
G75*
G02*
X74800000Y-105335000I-150000J0D01*
G01*
X73150000Y-105335000D01*
G75*
G02*
X73000000Y-105185000I0J150000D01*
G01*
X73000000Y-104885000D01*
G75*
G02*
X73150000Y-104735000I150000J0D01*
G01*
X74800000Y-104735000D01*
G75*
G02*
X74950000Y-104885000I0J-150000D01*
G01*
G37*
G36*
G01*
X74950000Y-106155000D02*
X74950000Y-106455000D01*
G75*
G02*
X74800000Y-106605000I-150000J0D01*
G01*
X73150000Y-106605000D01*
G75*
G02*
X73000000Y-106455000I0J150000D01*
G01*
X73000000Y-106155000D01*
G75*
G02*
X73150000Y-106005000I150000J0D01*
G01*
X74800000Y-106005000D01*
G75*
G02*
X74950000Y-106155000I0J-150000D01*
G01*
G37*
%TD*%
%TO.C,U3*%
G36*
G01*
X70000000Y-85555000D02*
X70000000Y-85855000D01*
G75*
G02*
X69850000Y-86005000I-150000J0D01*
G01*
X68200000Y-86005000D01*
G75*
G02*
X68050000Y-85855000I0J150000D01*
G01*
X68050000Y-85555000D01*
G75*
G02*
X68200000Y-85405000I150000J0D01*
G01*
X69850000Y-85405000D01*
G75*
G02*
X70000000Y-85555000I0J-150000D01*
G01*
G37*
G36*
G01*
X70000000Y-84285000D02*
X70000000Y-84585000D01*
G75*
G02*
X69850000Y-84735000I-150000J0D01*
G01*
X68200000Y-84735000D01*
G75*
G02*
X68050000Y-84585000I0J150000D01*
G01*
X68050000Y-84285000D01*
G75*
G02*
X68200000Y-84135000I150000J0D01*
G01*
X69850000Y-84135000D01*
G75*
G02*
X70000000Y-84285000I0J-150000D01*
G01*
G37*
G36*
G01*
X70000000Y-83015000D02*
X70000000Y-83315000D01*
G75*
G02*
X69850000Y-83465000I-150000J0D01*
G01*
X68200000Y-83465000D01*
G75*
G02*
X68050000Y-83315000I0J150000D01*
G01*
X68050000Y-83015000D01*
G75*
G02*
X68200000Y-82865000I150000J0D01*
G01*
X69850000Y-82865000D01*
G75*
G02*
X70000000Y-83015000I0J-150000D01*
G01*
G37*
G36*
G01*
X70000000Y-81745000D02*
X70000000Y-82045000D01*
G75*
G02*
X69850000Y-82195000I-150000J0D01*
G01*
X68200000Y-82195000D01*
G75*
G02*
X68050000Y-82045000I0J150000D01*
G01*
X68050000Y-81745000D01*
G75*
G02*
X68200000Y-81595000I150000J0D01*
G01*
X69850000Y-81595000D01*
G75*
G02*
X70000000Y-81745000I0J-150000D01*
G01*
G37*
G36*
G01*
X74950000Y-81745000D02*
X74950000Y-82045000D01*
G75*
G02*
X74800000Y-82195000I-150000J0D01*
G01*
X73150000Y-82195000D01*
G75*
G02*
X73000000Y-82045000I0J150000D01*
G01*
X73000000Y-81745000D01*
G75*
G02*
X73150000Y-81595000I150000J0D01*
G01*
X74800000Y-81595000D01*
G75*
G02*
X74950000Y-81745000I0J-150000D01*
G01*
G37*
G36*
G01*
X74950000Y-83015000D02*
X74950000Y-83315000D01*
G75*
G02*
X74800000Y-83465000I-150000J0D01*
G01*
X73150000Y-83465000D01*
G75*
G02*
X73000000Y-83315000I0J150000D01*
G01*
X73000000Y-83015000D01*
G75*
G02*
X73150000Y-82865000I150000J0D01*
G01*
X74800000Y-82865000D01*
G75*
G02*
X74950000Y-83015000I0J-150000D01*
G01*
G37*
G36*
G01*
X74950000Y-84285000D02*
X74950000Y-84585000D01*
G75*
G02*
X74800000Y-84735000I-150000J0D01*
G01*
X73150000Y-84735000D01*
G75*
G02*
X73000000Y-84585000I0J150000D01*
G01*
X73000000Y-84285000D01*
G75*
G02*
X73150000Y-84135000I150000J0D01*
G01*
X74800000Y-84135000D01*
G75*
G02*
X74950000Y-84285000I0J-150000D01*
G01*
G37*
G36*
G01*
X74950000Y-85555000D02*
X74950000Y-85855000D01*
G75*
G02*
X74800000Y-86005000I-150000J0D01*
G01*
X73150000Y-86005000D01*
G75*
G02*
X73000000Y-85855000I0J150000D01*
G01*
X73000000Y-85555000D01*
G75*
G02*
X73150000Y-85405000I150000J0D01*
G01*
X74800000Y-85405000D01*
G75*
G02*
X74950000Y-85555000I0J-150000D01*
G01*
G37*
%TD*%
%TO.C,U2*%
G36*
G01*
X70000000Y-68555000D02*
X70000000Y-68855000D01*
G75*
G02*
X69850000Y-69005000I-150000J0D01*
G01*
X68200000Y-69005000D01*
G75*
G02*
X68050000Y-68855000I0J150000D01*
G01*
X68050000Y-68555000D01*
G75*
G02*
X68200000Y-68405000I150000J0D01*
G01*
X69850000Y-68405000D01*
G75*
G02*
X70000000Y-68555000I0J-150000D01*
G01*
G37*
G36*
G01*
X70000000Y-67285000D02*
X70000000Y-67585000D01*
G75*
G02*
X69850000Y-67735000I-150000J0D01*
G01*
X68200000Y-67735000D01*
G75*
G02*
X68050000Y-67585000I0J150000D01*
G01*
X68050000Y-67285000D01*
G75*
G02*
X68200000Y-67135000I150000J0D01*
G01*
X69850000Y-67135000D01*
G75*
G02*
X70000000Y-67285000I0J-150000D01*
G01*
G37*
G36*
G01*
X70000000Y-66015000D02*
X70000000Y-66315000D01*
G75*
G02*
X69850000Y-66465000I-150000J0D01*
G01*
X68200000Y-66465000D01*
G75*
G02*
X68050000Y-66315000I0J150000D01*
G01*
X68050000Y-66015000D01*
G75*
G02*
X68200000Y-65865000I150000J0D01*
G01*
X69850000Y-65865000D01*
G75*
G02*
X70000000Y-66015000I0J-150000D01*
G01*
G37*
G36*
G01*
X70000000Y-64745000D02*
X70000000Y-65045000D01*
G75*
G02*
X69850000Y-65195000I-150000J0D01*
G01*
X68200000Y-65195000D01*
G75*
G02*
X68050000Y-65045000I0J150000D01*
G01*
X68050000Y-64745000D01*
G75*
G02*
X68200000Y-64595000I150000J0D01*
G01*
X69850000Y-64595000D01*
G75*
G02*
X70000000Y-64745000I0J-150000D01*
G01*
G37*
G36*
G01*
X74950000Y-64745000D02*
X74950000Y-65045000D01*
G75*
G02*
X74800000Y-65195000I-150000J0D01*
G01*
X73150000Y-65195000D01*
G75*
G02*
X73000000Y-65045000I0J150000D01*
G01*
X73000000Y-64745000D01*
G75*
G02*
X73150000Y-64595000I150000J0D01*
G01*
X74800000Y-64595000D01*
G75*
G02*
X74950000Y-64745000I0J-150000D01*
G01*
G37*
G36*
G01*
X74950000Y-66015000D02*
X74950000Y-66315000D01*
G75*
G02*
X74800000Y-66465000I-150000J0D01*
G01*
X73150000Y-66465000D01*
G75*
G02*
X73000000Y-66315000I0J150000D01*
G01*
X73000000Y-66015000D01*
G75*
G02*
X73150000Y-65865000I150000J0D01*
G01*
X74800000Y-65865000D01*
G75*
G02*
X74950000Y-66015000I0J-150000D01*
G01*
G37*
G36*
G01*
X74950000Y-67285000D02*
X74950000Y-67585000D01*
G75*
G02*
X74800000Y-67735000I-150000J0D01*
G01*
X73150000Y-67735000D01*
G75*
G02*
X73000000Y-67585000I0J150000D01*
G01*
X73000000Y-67285000D01*
G75*
G02*
X73150000Y-67135000I150000J0D01*
G01*
X74800000Y-67135000D01*
G75*
G02*
X74950000Y-67285000I0J-150000D01*
G01*
G37*
G36*
G01*
X74950000Y-68555000D02*
X74950000Y-68855000D01*
G75*
G02*
X74800000Y-69005000I-150000J0D01*
G01*
X73150000Y-69005000D01*
G75*
G02*
X73000000Y-68855000I0J150000D01*
G01*
X73000000Y-68555000D01*
G75*
G02*
X73150000Y-68405000I150000J0D01*
G01*
X74800000Y-68405000D01*
G75*
G02*
X74950000Y-68555000I0J-150000D01*
G01*
G37*
%TD*%
%TO.C,R8*%
G36*
G01*
X61725000Y-115075000D02*
X61725000Y-116325000D01*
G75*
G02*
X61475000Y-116575000I-250000J0D01*
G01*
X60725000Y-116575000D01*
G75*
G02*
X60475000Y-116325000I0J250000D01*
G01*
X60475000Y-115075000D01*
G75*
G02*
X60725000Y-114825000I250000J0D01*
G01*
X61475000Y-114825000D01*
G75*
G02*
X61725000Y-115075000I0J-250000D01*
G01*
G37*
G36*
G01*
X64525000Y-115075000D02*
X64525000Y-116325000D01*
G75*
G02*
X64275000Y-116575000I-250000J0D01*
G01*
X63525000Y-116575000D01*
G75*
G02*
X63275000Y-116325000I0J250000D01*
G01*
X63275000Y-115075000D01*
G75*
G02*
X63525000Y-114825000I250000J0D01*
G01*
X64275000Y-114825000D01*
G75*
G02*
X64525000Y-115075000I0J-250000D01*
G01*
G37*
%TD*%
%TO.C,R7*%
G36*
G01*
X61725000Y-117975000D02*
X61725000Y-119225000D01*
G75*
G02*
X61475000Y-119475000I-250000J0D01*
G01*
X60725000Y-119475000D01*
G75*
G02*
X60475000Y-119225000I0J250000D01*
G01*
X60475000Y-117975000D01*
G75*
G02*
X60725000Y-117725000I250000J0D01*
G01*
X61475000Y-117725000D01*
G75*
G02*
X61725000Y-117975000I0J-250000D01*
G01*
G37*
G36*
G01*
X64525000Y-117975000D02*
X64525000Y-119225000D01*
G75*
G02*
X64275000Y-119475000I-250000J0D01*
G01*
X63525000Y-119475000D01*
G75*
G02*
X63275000Y-119225000I0J250000D01*
G01*
X63275000Y-117975000D01*
G75*
G02*
X63525000Y-117725000I250000J0D01*
G01*
X64275000Y-117725000D01*
G75*
G02*
X64525000Y-117975000I0J-250000D01*
G01*
G37*
%TD*%
%TO.C,R6*%
G36*
G01*
X61725000Y-98075000D02*
X61725000Y-99325000D01*
G75*
G02*
X61475000Y-99575000I-250000J0D01*
G01*
X60725000Y-99575000D01*
G75*
G02*
X60475000Y-99325000I0J250000D01*
G01*
X60475000Y-98075000D01*
G75*
G02*
X60725000Y-97825000I250000J0D01*
G01*
X61475000Y-97825000D01*
G75*
G02*
X61725000Y-98075000I0J-250000D01*
G01*
G37*
G36*
G01*
X64525000Y-98075000D02*
X64525000Y-99325000D01*
G75*
G02*
X64275000Y-99575000I-250000J0D01*
G01*
X63525000Y-99575000D01*
G75*
G02*
X63275000Y-99325000I0J250000D01*
G01*
X63275000Y-98075000D01*
G75*
G02*
X63525000Y-97825000I250000J0D01*
G01*
X64275000Y-97825000D01*
G75*
G02*
X64525000Y-98075000I0J-250000D01*
G01*
G37*
%TD*%
%TO.C,R5*%
G36*
G01*
X61725000Y-100975000D02*
X61725000Y-102225000D01*
G75*
G02*
X61475000Y-102475000I-250000J0D01*
G01*
X60725000Y-102475000D01*
G75*
G02*
X60475000Y-102225000I0J250000D01*
G01*
X60475000Y-100975000D01*
G75*
G02*
X60725000Y-100725000I250000J0D01*
G01*
X61475000Y-100725000D01*
G75*
G02*
X61725000Y-100975000I0J-250000D01*
G01*
G37*
G36*
G01*
X64525000Y-100975000D02*
X64525000Y-102225000D01*
G75*
G02*
X64275000Y-102475000I-250000J0D01*
G01*
X63525000Y-102475000D01*
G75*
G02*
X63275000Y-102225000I0J250000D01*
G01*
X63275000Y-100975000D01*
G75*
G02*
X63525000Y-100725000I250000J0D01*
G01*
X64275000Y-100725000D01*
G75*
G02*
X64525000Y-100975000I0J-250000D01*
G01*
G37*
%TD*%
%TO.C,R4*%
G36*
G01*
X61725000Y-81075000D02*
X61725000Y-82325000D01*
G75*
G02*
X61475000Y-82575000I-250000J0D01*
G01*
X60725000Y-82575000D01*
G75*
G02*
X60475000Y-82325000I0J250000D01*
G01*
X60475000Y-81075000D01*
G75*
G02*
X60725000Y-80825000I250000J0D01*
G01*
X61475000Y-80825000D01*
G75*
G02*
X61725000Y-81075000I0J-250000D01*
G01*
G37*
G36*
G01*
X64525000Y-81075000D02*
X64525000Y-82325000D01*
G75*
G02*
X64275000Y-82575000I-250000J0D01*
G01*
X63525000Y-82575000D01*
G75*
G02*
X63275000Y-82325000I0J250000D01*
G01*
X63275000Y-81075000D01*
G75*
G02*
X63525000Y-80825000I250000J0D01*
G01*
X64275000Y-80825000D01*
G75*
G02*
X64525000Y-81075000I0J-250000D01*
G01*
G37*
%TD*%
%TO.C,R3*%
G36*
G01*
X61725000Y-83975000D02*
X61725000Y-85225000D01*
G75*
G02*
X61475000Y-85475000I-250000J0D01*
G01*
X60725000Y-85475000D01*
G75*
G02*
X60475000Y-85225000I0J250000D01*
G01*
X60475000Y-83975000D01*
G75*
G02*
X60725000Y-83725000I250000J0D01*
G01*
X61475000Y-83725000D01*
G75*
G02*
X61725000Y-83975000I0J-250000D01*
G01*
G37*
G36*
G01*
X64525000Y-83975000D02*
X64525000Y-85225000D01*
G75*
G02*
X64275000Y-85475000I-250000J0D01*
G01*
X63525000Y-85475000D01*
G75*
G02*
X63275000Y-85225000I0J250000D01*
G01*
X63275000Y-83975000D01*
G75*
G02*
X63525000Y-83725000I250000J0D01*
G01*
X64275000Y-83725000D01*
G75*
G02*
X64525000Y-83975000I0J-250000D01*
G01*
G37*
%TD*%
%TO.C,R2*%
G36*
G01*
X61725000Y-64075000D02*
X61725000Y-65325000D01*
G75*
G02*
X61475000Y-65575000I-250000J0D01*
G01*
X60725000Y-65575000D01*
G75*
G02*
X60475000Y-65325000I0J250000D01*
G01*
X60475000Y-64075000D01*
G75*
G02*
X60725000Y-63825000I250000J0D01*
G01*
X61475000Y-63825000D01*
G75*
G02*
X61725000Y-64075000I0J-250000D01*
G01*
G37*
G36*
G01*
X64525000Y-64075000D02*
X64525000Y-65325000D01*
G75*
G02*
X64275000Y-65575000I-250000J0D01*
G01*
X63525000Y-65575000D01*
G75*
G02*
X63275000Y-65325000I0J250000D01*
G01*
X63275000Y-64075000D01*
G75*
G02*
X63525000Y-63825000I250000J0D01*
G01*
X64275000Y-63825000D01*
G75*
G02*
X64525000Y-64075000I0J-250000D01*
G01*
G37*
%TD*%
%TO.C,R1*%
G36*
G01*
X61725000Y-66975000D02*
X61725000Y-68225000D01*
G75*
G02*
X61475000Y-68475000I-250000J0D01*
G01*
X60725000Y-68475000D01*
G75*
G02*
X60475000Y-68225000I0J250000D01*
G01*
X60475000Y-66975000D01*
G75*
G02*
X60725000Y-66725000I250000J0D01*
G01*
X61475000Y-66725000D01*
G75*
G02*
X61725000Y-66975000I0J-250000D01*
G01*
G37*
G36*
G01*
X64525000Y-66975000D02*
X64525000Y-68225000D01*
G75*
G02*
X64275000Y-68475000I-250000J0D01*
G01*
X63525000Y-68475000D01*
G75*
G02*
X63275000Y-68225000I0J250000D01*
G01*
X63275000Y-66975000D01*
G75*
G02*
X63525000Y-66725000I250000J0D01*
G01*
X64275000Y-66725000D01*
G75*
G02*
X64525000Y-66975000I0J-250000D01*
G01*
G37*
%TD*%
%TO.C,Q8*%
G36*
G01*
X53700000Y-123255000D02*
X53700000Y-123555000D01*
G75*
G02*
X53550000Y-123705000I-150000J0D01*
G01*
X51900000Y-123705000D01*
G75*
G02*
X51750000Y-123555000I0J150000D01*
G01*
X51750000Y-123255000D01*
G75*
G02*
X51900000Y-123105000I150000J0D01*
G01*
X53550000Y-123105000D01*
G75*
G02*
X53700000Y-123255000I0J-150000D01*
G01*
G37*
G36*
G01*
X53700000Y-121985000D02*
X53700000Y-122285000D01*
G75*
G02*
X53550000Y-122435000I-150000J0D01*
G01*
X51900000Y-122435000D01*
G75*
G02*
X51750000Y-122285000I0J150000D01*
G01*
X51750000Y-121985000D01*
G75*
G02*
X51900000Y-121835000I150000J0D01*
G01*
X53550000Y-121835000D01*
G75*
G02*
X53700000Y-121985000I0J-150000D01*
G01*
G37*
G36*
G01*
X53700000Y-120715000D02*
X53700000Y-121015000D01*
G75*
G02*
X53550000Y-121165000I-150000J0D01*
G01*
X51900000Y-121165000D01*
G75*
G02*
X51750000Y-121015000I0J150000D01*
G01*
X51750000Y-120715000D01*
G75*
G02*
X51900000Y-120565000I150000J0D01*
G01*
X53550000Y-120565000D01*
G75*
G02*
X53700000Y-120715000I0J-150000D01*
G01*
G37*
G36*
G01*
X53700000Y-119445000D02*
X53700000Y-119745000D01*
G75*
G02*
X53550000Y-119895000I-150000J0D01*
G01*
X51900000Y-119895000D01*
G75*
G02*
X51750000Y-119745000I0J150000D01*
G01*
X51750000Y-119445000D01*
G75*
G02*
X51900000Y-119295000I150000J0D01*
G01*
X53550000Y-119295000D01*
G75*
G02*
X53700000Y-119445000I0J-150000D01*
G01*
G37*
G36*
G01*
X58650000Y-119445000D02*
X58650000Y-119745000D01*
G75*
G02*
X58500000Y-119895000I-150000J0D01*
G01*
X56850000Y-119895000D01*
G75*
G02*
X56700000Y-119745000I0J150000D01*
G01*
X56700000Y-119445000D01*
G75*
G02*
X56850000Y-119295000I150000J0D01*
G01*
X58500000Y-119295000D01*
G75*
G02*
X58650000Y-119445000I0J-150000D01*
G01*
G37*
G36*
G01*
X58650000Y-120715000D02*
X58650000Y-121015000D01*
G75*
G02*
X58500000Y-121165000I-150000J0D01*
G01*
X56850000Y-121165000D01*
G75*
G02*
X56700000Y-121015000I0J150000D01*
G01*
X56700000Y-120715000D01*
G75*
G02*
X56850000Y-120565000I150000J0D01*
G01*
X58500000Y-120565000D01*
G75*
G02*
X58650000Y-120715000I0J-150000D01*
G01*
G37*
G36*
G01*
X58650000Y-121985000D02*
X58650000Y-122285000D01*
G75*
G02*
X58500000Y-122435000I-150000J0D01*
G01*
X56850000Y-122435000D01*
G75*
G02*
X56700000Y-122285000I0J150000D01*
G01*
X56700000Y-121985000D01*
G75*
G02*
X56850000Y-121835000I150000J0D01*
G01*
X58500000Y-121835000D01*
G75*
G02*
X58650000Y-121985000I0J-150000D01*
G01*
G37*
G36*
G01*
X58650000Y-123255000D02*
X58650000Y-123555000D01*
G75*
G02*
X58500000Y-123705000I-150000J0D01*
G01*
X56850000Y-123705000D01*
G75*
G02*
X56700000Y-123555000I0J150000D01*
G01*
X56700000Y-123255000D01*
G75*
G02*
X56850000Y-123105000I150000J0D01*
G01*
X58500000Y-123105000D01*
G75*
G02*
X58650000Y-123255000I0J-150000D01*
G01*
G37*
%TD*%
%TO.C,Q7*%
G36*
G01*
X53700000Y-114755000D02*
X53700000Y-115055000D01*
G75*
G02*
X53550000Y-115205000I-150000J0D01*
G01*
X51900000Y-115205000D01*
G75*
G02*
X51750000Y-115055000I0J150000D01*
G01*
X51750000Y-114755000D01*
G75*
G02*
X51900000Y-114605000I150000J0D01*
G01*
X53550000Y-114605000D01*
G75*
G02*
X53700000Y-114755000I0J-150000D01*
G01*
G37*
G36*
G01*
X53700000Y-113485000D02*
X53700000Y-113785000D01*
G75*
G02*
X53550000Y-113935000I-150000J0D01*
G01*
X51900000Y-113935000D01*
G75*
G02*
X51750000Y-113785000I0J150000D01*
G01*
X51750000Y-113485000D01*
G75*
G02*
X51900000Y-113335000I150000J0D01*
G01*
X53550000Y-113335000D01*
G75*
G02*
X53700000Y-113485000I0J-150000D01*
G01*
G37*
G36*
G01*
X53700000Y-112215000D02*
X53700000Y-112515000D01*
G75*
G02*
X53550000Y-112665000I-150000J0D01*
G01*
X51900000Y-112665000D01*
G75*
G02*
X51750000Y-112515000I0J150000D01*
G01*
X51750000Y-112215000D01*
G75*
G02*
X51900000Y-112065000I150000J0D01*
G01*
X53550000Y-112065000D01*
G75*
G02*
X53700000Y-112215000I0J-150000D01*
G01*
G37*
G36*
G01*
X53700000Y-110945000D02*
X53700000Y-111245000D01*
G75*
G02*
X53550000Y-111395000I-150000J0D01*
G01*
X51900000Y-111395000D01*
G75*
G02*
X51750000Y-111245000I0J150000D01*
G01*
X51750000Y-110945000D01*
G75*
G02*
X51900000Y-110795000I150000J0D01*
G01*
X53550000Y-110795000D01*
G75*
G02*
X53700000Y-110945000I0J-150000D01*
G01*
G37*
G36*
G01*
X58650000Y-110945000D02*
X58650000Y-111245000D01*
G75*
G02*
X58500000Y-111395000I-150000J0D01*
G01*
X56850000Y-111395000D01*
G75*
G02*
X56700000Y-111245000I0J150000D01*
G01*
X56700000Y-110945000D01*
G75*
G02*
X56850000Y-110795000I150000J0D01*
G01*
X58500000Y-110795000D01*
G75*
G02*
X58650000Y-110945000I0J-150000D01*
G01*
G37*
G36*
G01*
X58650000Y-112215000D02*
X58650000Y-112515000D01*
G75*
G02*
X58500000Y-112665000I-150000J0D01*
G01*
X56850000Y-112665000D01*
G75*
G02*
X56700000Y-112515000I0J150000D01*
G01*
X56700000Y-112215000D01*
G75*
G02*
X56850000Y-112065000I150000J0D01*
G01*
X58500000Y-112065000D01*
G75*
G02*
X58650000Y-112215000I0J-150000D01*
G01*
G37*
G36*
G01*
X58650000Y-113485000D02*
X58650000Y-113785000D01*
G75*
G02*
X58500000Y-113935000I-150000J0D01*
G01*
X56850000Y-113935000D01*
G75*
G02*
X56700000Y-113785000I0J150000D01*
G01*
X56700000Y-113485000D01*
G75*
G02*
X56850000Y-113335000I150000J0D01*
G01*
X58500000Y-113335000D01*
G75*
G02*
X58650000Y-113485000I0J-150000D01*
G01*
G37*
G36*
G01*
X58650000Y-114755000D02*
X58650000Y-115055000D01*
G75*
G02*
X58500000Y-115205000I-150000J0D01*
G01*
X56850000Y-115205000D01*
G75*
G02*
X56700000Y-115055000I0J150000D01*
G01*
X56700000Y-114755000D01*
G75*
G02*
X56850000Y-114605000I150000J0D01*
G01*
X58500000Y-114605000D01*
G75*
G02*
X58650000Y-114755000I0J-150000D01*
G01*
G37*
%TD*%
%TO.C,Q6*%
G36*
G01*
X53700000Y-106255000D02*
X53700000Y-106555000D01*
G75*
G02*
X53550000Y-106705000I-150000J0D01*
G01*
X51900000Y-106705000D01*
G75*
G02*
X51750000Y-106555000I0J150000D01*
G01*
X51750000Y-106255000D01*
G75*
G02*
X51900000Y-106105000I150000J0D01*
G01*
X53550000Y-106105000D01*
G75*
G02*
X53700000Y-106255000I0J-150000D01*
G01*
G37*
G36*
G01*
X53700000Y-104985000D02*
X53700000Y-105285000D01*
G75*
G02*
X53550000Y-105435000I-150000J0D01*
G01*
X51900000Y-105435000D01*
G75*
G02*
X51750000Y-105285000I0J150000D01*
G01*
X51750000Y-104985000D01*
G75*
G02*
X51900000Y-104835000I150000J0D01*
G01*
X53550000Y-104835000D01*
G75*
G02*
X53700000Y-104985000I0J-150000D01*
G01*
G37*
G36*
G01*
X53700000Y-103715000D02*
X53700000Y-104015000D01*
G75*
G02*
X53550000Y-104165000I-150000J0D01*
G01*
X51900000Y-104165000D01*
G75*
G02*
X51750000Y-104015000I0J150000D01*
G01*
X51750000Y-103715000D01*
G75*
G02*
X51900000Y-103565000I150000J0D01*
G01*
X53550000Y-103565000D01*
G75*
G02*
X53700000Y-103715000I0J-150000D01*
G01*
G37*
G36*
G01*
X53700000Y-102445000D02*
X53700000Y-102745000D01*
G75*
G02*
X53550000Y-102895000I-150000J0D01*
G01*
X51900000Y-102895000D01*
G75*
G02*
X51750000Y-102745000I0J150000D01*
G01*
X51750000Y-102445000D01*
G75*
G02*
X51900000Y-102295000I150000J0D01*
G01*
X53550000Y-102295000D01*
G75*
G02*
X53700000Y-102445000I0J-150000D01*
G01*
G37*
G36*
G01*
X58650000Y-102445000D02*
X58650000Y-102745000D01*
G75*
G02*
X58500000Y-102895000I-150000J0D01*
G01*
X56850000Y-102895000D01*
G75*
G02*
X56700000Y-102745000I0J150000D01*
G01*
X56700000Y-102445000D01*
G75*
G02*
X56850000Y-102295000I150000J0D01*
G01*
X58500000Y-102295000D01*
G75*
G02*
X58650000Y-102445000I0J-150000D01*
G01*
G37*
G36*
G01*
X58650000Y-103715000D02*
X58650000Y-104015000D01*
G75*
G02*
X58500000Y-104165000I-150000J0D01*
G01*
X56850000Y-104165000D01*
G75*
G02*
X56700000Y-104015000I0J150000D01*
G01*
X56700000Y-103715000D01*
G75*
G02*
X56850000Y-103565000I150000J0D01*
G01*
X58500000Y-103565000D01*
G75*
G02*
X58650000Y-103715000I0J-150000D01*
G01*
G37*
G36*
G01*
X58650000Y-104985000D02*
X58650000Y-105285000D01*
G75*
G02*
X58500000Y-105435000I-150000J0D01*
G01*
X56850000Y-105435000D01*
G75*
G02*
X56700000Y-105285000I0J150000D01*
G01*
X56700000Y-104985000D01*
G75*
G02*
X56850000Y-104835000I150000J0D01*
G01*
X58500000Y-104835000D01*
G75*
G02*
X58650000Y-104985000I0J-150000D01*
G01*
G37*
G36*
G01*
X58650000Y-106255000D02*
X58650000Y-106555000D01*
G75*
G02*
X58500000Y-106705000I-150000J0D01*
G01*
X56850000Y-106705000D01*
G75*
G02*
X56700000Y-106555000I0J150000D01*
G01*
X56700000Y-106255000D01*
G75*
G02*
X56850000Y-106105000I150000J0D01*
G01*
X58500000Y-106105000D01*
G75*
G02*
X58650000Y-106255000I0J-150000D01*
G01*
G37*
%TD*%
%TO.C,Q5*%
G36*
G01*
X53700000Y-97755000D02*
X53700000Y-98055000D01*
G75*
G02*
X53550000Y-98205000I-150000J0D01*
G01*
X51900000Y-98205000D01*
G75*
G02*
X51750000Y-98055000I0J150000D01*
G01*
X51750000Y-97755000D01*
G75*
G02*
X51900000Y-97605000I150000J0D01*
G01*
X53550000Y-97605000D01*
G75*
G02*
X53700000Y-97755000I0J-150000D01*
G01*
G37*
G36*
G01*
X53700000Y-96485000D02*
X53700000Y-96785000D01*
G75*
G02*
X53550000Y-96935000I-150000J0D01*
G01*
X51900000Y-96935000D01*
G75*
G02*
X51750000Y-96785000I0J150000D01*
G01*
X51750000Y-96485000D01*
G75*
G02*
X51900000Y-96335000I150000J0D01*
G01*
X53550000Y-96335000D01*
G75*
G02*
X53700000Y-96485000I0J-150000D01*
G01*
G37*
G36*
G01*
X53700000Y-95215000D02*
X53700000Y-95515000D01*
G75*
G02*
X53550000Y-95665000I-150000J0D01*
G01*
X51900000Y-95665000D01*
G75*
G02*
X51750000Y-95515000I0J150000D01*
G01*
X51750000Y-95215000D01*
G75*
G02*
X51900000Y-95065000I150000J0D01*
G01*
X53550000Y-95065000D01*
G75*
G02*
X53700000Y-95215000I0J-150000D01*
G01*
G37*
G36*
G01*
X53700000Y-93945000D02*
X53700000Y-94245000D01*
G75*
G02*
X53550000Y-94395000I-150000J0D01*
G01*
X51900000Y-94395000D01*
G75*
G02*
X51750000Y-94245000I0J150000D01*
G01*
X51750000Y-93945000D01*
G75*
G02*
X51900000Y-93795000I150000J0D01*
G01*
X53550000Y-93795000D01*
G75*
G02*
X53700000Y-93945000I0J-150000D01*
G01*
G37*
G36*
G01*
X58650000Y-93945000D02*
X58650000Y-94245000D01*
G75*
G02*
X58500000Y-94395000I-150000J0D01*
G01*
X56850000Y-94395000D01*
G75*
G02*
X56700000Y-94245000I0J150000D01*
G01*
X56700000Y-93945000D01*
G75*
G02*
X56850000Y-93795000I150000J0D01*
G01*
X58500000Y-93795000D01*
G75*
G02*
X58650000Y-93945000I0J-150000D01*
G01*
G37*
G36*
G01*
X58650000Y-95215000D02*
X58650000Y-95515000D01*
G75*
G02*
X58500000Y-95665000I-150000J0D01*
G01*
X56850000Y-95665000D01*
G75*
G02*
X56700000Y-95515000I0J150000D01*
G01*
X56700000Y-95215000D01*
G75*
G02*
X56850000Y-95065000I150000J0D01*
G01*
X58500000Y-95065000D01*
G75*
G02*
X58650000Y-95215000I0J-150000D01*
G01*
G37*
G36*
G01*
X58650000Y-96485000D02*
X58650000Y-96785000D01*
G75*
G02*
X58500000Y-96935000I-150000J0D01*
G01*
X56850000Y-96935000D01*
G75*
G02*
X56700000Y-96785000I0J150000D01*
G01*
X56700000Y-96485000D01*
G75*
G02*
X56850000Y-96335000I150000J0D01*
G01*
X58500000Y-96335000D01*
G75*
G02*
X58650000Y-96485000I0J-150000D01*
G01*
G37*
G36*
G01*
X58650000Y-97755000D02*
X58650000Y-98055000D01*
G75*
G02*
X58500000Y-98205000I-150000J0D01*
G01*
X56850000Y-98205000D01*
G75*
G02*
X56700000Y-98055000I0J150000D01*
G01*
X56700000Y-97755000D01*
G75*
G02*
X56850000Y-97605000I150000J0D01*
G01*
X58500000Y-97605000D01*
G75*
G02*
X58650000Y-97755000I0J-150000D01*
G01*
G37*
%TD*%
%TO.C,Q3*%
G36*
G01*
X53700000Y-80755000D02*
X53700000Y-81055000D01*
G75*
G02*
X53550000Y-81205000I-150000J0D01*
G01*
X51900000Y-81205000D01*
G75*
G02*
X51750000Y-81055000I0J150000D01*
G01*
X51750000Y-80755000D01*
G75*
G02*
X51900000Y-80605000I150000J0D01*
G01*
X53550000Y-80605000D01*
G75*
G02*
X53700000Y-80755000I0J-150000D01*
G01*
G37*
G36*
G01*
X53700000Y-79485000D02*
X53700000Y-79785000D01*
G75*
G02*
X53550000Y-79935000I-150000J0D01*
G01*
X51900000Y-79935000D01*
G75*
G02*
X51750000Y-79785000I0J150000D01*
G01*
X51750000Y-79485000D01*
G75*
G02*
X51900000Y-79335000I150000J0D01*
G01*
X53550000Y-79335000D01*
G75*
G02*
X53700000Y-79485000I0J-150000D01*
G01*
G37*
G36*
G01*
X53700000Y-78215000D02*
X53700000Y-78515000D01*
G75*
G02*
X53550000Y-78665000I-150000J0D01*
G01*
X51900000Y-78665000D01*
G75*
G02*
X51750000Y-78515000I0J150000D01*
G01*
X51750000Y-78215000D01*
G75*
G02*
X51900000Y-78065000I150000J0D01*
G01*
X53550000Y-78065000D01*
G75*
G02*
X53700000Y-78215000I0J-150000D01*
G01*
G37*
G36*
G01*
X53700000Y-76945000D02*
X53700000Y-77245000D01*
G75*
G02*
X53550000Y-77395000I-150000J0D01*
G01*
X51900000Y-77395000D01*
G75*
G02*
X51750000Y-77245000I0J150000D01*
G01*
X51750000Y-76945000D01*
G75*
G02*
X51900000Y-76795000I150000J0D01*
G01*
X53550000Y-76795000D01*
G75*
G02*
X53700000Y-76945000I0J-150000D01*
G01*
G37*
G36*
G01*
X58650000Y-76945000D02*
X58650000Y-77245000D01*
G75*
G02*
X58500000Y-77395000I-150000J0D01*
G01*
X56850000Y-77395000D01*
G75*
G02*
X56700000Y-77245000I0J150000D01*
G01*
X56700000Y-76945000D01*
G75*
G02*
X56850000Y-76795000I150000J0D01*
G01*
X58500000Y-76795000D01*
G75*
G02*
X58650000Y-76945000I0J-150000D01*
G01*
G37*
G36*
G01*
X58650000Y-78215000D02*
X58650000Y-78515000D01*
G75*
G02*
X58500000Y-78665000I-150000J0D01*
G01*
X56850000Y-78665000D01*
G75*
G02*
X56700000Y-78515000I0J150000D01*
G01*
X56700000Y-78215000D01*
G75*
G02*
X56850000Y-78065000I150000J0D01*
G01*
X58500000Y-78065000D01*
G75*
G02*
X58650000Y-78215000I0J-150000D01*
G01*
G37*
G36*
G01*
X58650000Y-79485000D02*
X58650000Y-79785000D01*
G75*
G02*
X58500000Y-79935000I-150000J0D01*
G01*
X56850000Y-79935000D01*
G75*
G02*
X56700000Y-79785000I0J150000D01*
G01*
X56700000Y-79485000D01*
G75*
G02*
X56850000Y-79335000I150000J0D01*
G01*
X58500000Y-79335000D01*
G75*
G02*
X58650000Y-79485000I0J-150000D01*
G01*
G37*
G36*
G01*
X58650000Y-80755000D02*
X58650000Y-81055000D01*
G75*
G02*
X58500000Y-81205000I-150000J0D01*
G01*
X56850000Y-81205000D01*
G75*
G02*
X56700000Y-81055000I0J150000D01*
G01*
X56700000Y-80755000D01*
G75*
G02*
X56850000Y-80605000I150000J0D01*
G01*
X58500000Y-80605000D01*
G75*
G02*
X58650000Y-80755000I0J-150000D01*
G01*
G37*
%TD*%
%TO.C,Q4*%
G36*
G01*
X53700000Y-89255000D02*
X53700000Y-89555000D01*
G75*
G02*
X53550000Y-89705000I-150000J0D01*
G01*
X51900000Y-89705000D01*
G75*
G02*
X51750000Y-89555000I0J150000D01*
G01*
X51750000Y-89255000D01*
G75*
G02*
X51900000Y-89105000I150000J0D01*
G01*
X53550000Y-89105000D01*
G75*
G02*
X53700000Y-89255000I0J-150000D01*
G01*
G37*
G36*
G01*
X53700000Y-87985000D02*
X53700000Y-88285000D01*
G75*
G02*
X53550000Y-88435000I-150000J0D01*
G01*
X51900000Y-88435000D01*
G75*
G02*
X51750000Y-88285000I0J150000D01*
G01*
X51750000Y-87985000D01*
G75*
G02*
X51900000Y-87835000I150000J0D01*
G01*
X53550000Y-87835000D01*
G75*
G02*
X53700000Y-87985000I0J-150000D01*
G01*
G37*
G36*
G01*
X53700000Y-86715000D02*
X53700000Y-87015000D01*
G75*
G02*
X53550000Y-87165000I-150000J0D01*
G01*
X51900000Y-87165000D01*
G75*
G02*
X51750000Y-87015000I0J150000D01*
G01*
X51750000Y-86715000D01*
G75*
G02*
X51900000Y-86565000I150000J0D01*
G01*
X53550000Y-86565000D01*
G75*
G02*
X53700000Y-86715000I0J-150000D01*
G01*
G37*
G36*
G01*
X53700000Y-85445000D02*
X53700000Y-85745000D01*
G75*
G02*
X53550000Y-85895000I-150000J0D01*
G01*
X51900000Y-85895000D01*
G75*
G02*
X51750000Y-85745000I0J150000D01*
G01*
X51750000Y-85445000D01*
G75*
G02*
X51900000Y-85295000I150000J0D01*
G01*
X53550000Y-85295000D01*
G75*
G02*
X53700000Y-85445000I0J-150000D01*
G01*
G37*
G36*
G01*
X58650000Y-85445000D02*
X58650000Y-85745000D01*
G75*
G02*
X58500000Y-85895000I-150000J0D01*
G01*
X56850000Y-85895000D01*
G75*
G02*
X56700000Y-85745000I0J150000D01*
G01*
X56700000Y-85445000D01*
G75*
G02*
X56850000Y-85295000I150000J0D01*
G01*
X58500000Y-85295000D01*
G75*
G02*
X58650000Y-85445000I0J-150000D01*
G01*
G37*
G36*
G01*
X58650000Y-86715000D02*
X58650000Y-87015000D01*
G75*
G02*
X58500000Y-87165000I-150000J0D01*
G01*
X56850000Y-87165000D01*
G75*
G02*
X56700000Y-87015000I0J150000D01*
G01*
X56700000Y-86715000D01*
G75*
G02*
X56850000Y-86565000I150000J0D01*
G01*
X58500000Y-86565000D01*
G75*
G02*
X58650000Y-86715000I0J-150000D01*
G01*
G37*
G36*
G01*
X58650000Y-87985000D02*
X58650000Y-88285000D01*
G75*
G02*
X58500000Y-88435000I-150000J0D01*
G01*
X56850000Y-88435000D01*
G75*
G02*
X56700000Y-88285000I0J150000D01*
G01*
X56700000Y-87985000D01*
G75*
G02*
X56850000Y-87835000I150000J0D01*
G01*
X58500000Y-87835000D01*
G75*
G02*
X58650000Y-87985000I0J-150000D01*
G01*
G37*
G36*
G01*
X58650000Y-89255000D02*
X58650000Y-89555000D01*
G75*
G02*
X58500000Y-89705000I-150000J0D01*
G01*
X56850000Y-89705000D01*
G75*
G02*
X56700000Y-89555000I0J150000D01*
G01*
X56700000Y-89255000D01*
G75*
G02*
X56850000Y-89105000I150000J0D01*
G01*
X58500000Y-89105000D01*
G75*
G02*
X58650000Y-89255000I0J-150000D01*
G01*
G37*
%TD*%
%TO.C,Q1*%
G36*
G01*
X53700000Y-63755000D02*
X53700000Y-64055000D01*
G75*
G02*
X53550000Y-64205000I-150000J0D01*
G01*
X51900000Y-64205000D01*
G75*
G02*
X51750000Y-64055000I0J150000D01*
G01*
X51750000Y-63755000D01*
G75*
G02*
X51900000Y-63605000I150000J0D01*
G01*
X53550000Y-63605000D01*
G75*
G02*
X53700000Y-63755000I0J-150000D01*
G01*
G37*
G36*
G01*
X53700000Y-62485000D02*
X53700000Y-62785000D01*
G75*
G02*
X53550000Y-62935000I-150000J0D01*
G01*
X51900000Y-62935000D01*
G75*
G02*
X51750000Y-62785000I0J150000D01*
G01*
X51750000Y-62485000D01*
G75*
G02*
X51900000Y-62335000I150000J0D01*
G01*
X53550000Y-62335000D01*
G75*
G02*
X53700000Y-62485000I0J-150000D01*
G01*
G37*
G36*
G01*
X53700000Y-61215000D02*
X53700000Y-61515000D01*
G75*
G02*
X53550000Y-61665000I-150000J0D01*
G01*
X51900000Y-61665000D01*
G75*
G02*
X51750000Y-61515000I0J150000D01*
G01*
X51750000Y-61215000D01*
G75*
G02*
X51900000Y-61065000I150000J0D01*
G01*
X53550000Y-61065000D01*
G75*
G02*
X53700000Y-61215000I0J-150000D01*
G01*
G37*
G36*
G01*
X53700000Y-59945000D02*
X53700000Y-60245000D01*
G75*
G02*
X53550000Y-60395000I-150000J0D01*
G01*
X51900000Y-60395000D01*
G75*
G02*
X51750000Y-60245000I0J150000D01*
G01*
X51750000Y-59945000D01*
G75*
G02*
X51900000Y-59795000I150000J0D01*
G01*
X53550000Y-59795000D01*
G75*
G02*
X53700000Y-59945000I0J-150000D01*
G01*
G37*
G36*
G01*
X58650000Y-59945000D02*
X58650000Y-60245000D01*
G75*
G02*
X58500000Y-60395000I-150000J0D01*
G01*
X56850000Y-60395000D01*
G75*
G02*
X56700000Y-60245000I0J150000D01*
G01*
X56700000Y-59945000D01*
G75*
G02*
X56850000Y-59795000I150000J0D01*
G01*
X58500000Y-59795000D01*
G75*
G02*
X58650000Y-59945000I0J-150000D01*
G01*
G37*
G36*
G01*
X58650000Y-61215000D02*
X58650000Y-61515000D01*
G75*
G02*
X58500000Y-61665000I-150000J0D01*
G01*
X56850000Y-61665000D01*
G75*
G02*
X56700000Y-61515000I0J150000D01*
G01*
X56700000Y-61215000D01*
G75*
G02*
X56850000Y-61065000I150000J0D01*
G01*
X58500000Y-61065000D01*
G75*
G02*
X58650000Y-61215000I0J-150000D01*
G01*
G37*
G36*
G01*
X58650000Y-62485000D02*
X58650000Y-62785000D01*
G75*
G02*
X58500000Y-62935000I-150000J0D01*
G01*
X56850000Y-62935000D01*
G75*
G02*
X56700000Y-62785000I0J150000D01*
G01*
X56700000Y-62485000D01*
G75*
G02*
X56850000Y-62335000I150000J0D01*
G01*
X58500000Y-62335000D01*
G75*
G02*
X58650000Y-62485000I0J-150000D01*
G01*
G37*
G36*
G01*
X58650000Y-63755000D02*
X58650000Y-64055000D01*
G75*
G02*
X58500000Y-64205000I-150000J0D01*
G01*
X56850000Y-64205000D01*
G75*
G02*
X56700000Y-64055000I0J150000D01*
G01*
X56700000Y-63755000D01*
G75*
G02*
X56850000Y-63605000I150000J0D01*
G01*
X58500000Y-63605000D01*
G75*
G02*
X58650000Y-63755000I0J-150000D01*
G01*
G37*
%TD*%
%TO.C,Q2*%
G36*
G01*
X53700000Y-72255000D02*
X53700000Y-72555000D01*
G75*
G02*
X53550000Y-72705000I-150000J0D01*
G01*
X51900000Y-72705000D01*
G75*
G02*
X51750000Y-72555000I0J150000D01*
G01*
X51750000Y-72255000D01*
G75*
G02*
X51900000Y-72105000I150000J0D01*
G01*
X53550000Y-72105000D01*
G75*
G02*
X53700000Y-72255000I0J-150000D01*
G01*
G37*
G36*
G01*
X53700000Y-70985000D02*
X53700000Y-71285000D01*
G75*
G02*
X53550000Y-71435000I-150000J0D01*
G01*
X51900000Y-71435000D01*
G75*
G02*
X51750000Y-71285000I0J150000D01*
G01*
X51750000Y-70985000D01*
G75*
G02*
X51900000Y-70835000I150000J0D01*
G01*
X53550000Y-70835000D01*
G75*
G02*
X53700000Y-70985000I0J-150000D01*
G01*
G37*
G36*
G01*
X53700000Y-69715000D02*
X53700000Y-70015000D01*
G75*
G02*
X53550000Y-70165000I-150000J0D01*
G01*
X51900000Y-70165000D01*
G75*
G02*
X51750000Y-70015000I0J150000D01*
G01*
X51750000Y-69715000D01*
G75*
G02*
X51900000Y-69565000I150000J0D01*
G01*
X53550000Y-69565000D01*
G75*
G02*
X53700000Y-69715000I0J-150000D01*
G01*
G37*
G36*
G01*
X53700000Y-68445000D02*
X53700000Y-68745000D01*
G75*
G02*
X53550000Y-68895000I-150000J0D01*
G01*
X51900000Y-68895000D01*
G75*
G02*
X51750000Y-68745000I0J150000D01*
G01*
X51750000Y-68445000D01*
G75*
G02*
X51900000Y-68295000I150000J0D01*
G01*
X53550000Y-68295000D01*
G75*
G02*
X53700000Y-68445000I0J-150000D01*
G01*
G37*
G36*
G01*
X58650000Y-68445000D02*
X58650000Y-68745000D01*
G75*
G02*
X58500000Y-68895000I-150000J0D01*
G01*
X56850000Y-68895000D01*
G75*
G02*
X56700000Y-68745000I0J150000D01*
G01*
X56700000Y-68445000D01*
G75*
G02*
X56850000Y-68295000I150000J0D01*
G01*
X58500000Y-68295000D01*
G75*
G02*
X58650000Y-68445000I0J-150000D01*
G01*
G37*
G36*
G01*
X58650000Y-69715000D02*
X58650000Y-70015000D01*
G75*
G02*
X58500000Y-70165000I-150000J0D01*
G01*
X56850000Y-70165000D01*
G75*
G02*
X56700000Y-70015000I0J150000D01*
G01*
X56700000Y-69715000D01*
G75*
G02*
X56850000Y-69565000I150000J0D01*
G01*
X58500000Y-69565000D01*
G75*
G02*
X58650000Y-69715000I0J-150000D01*
G01*
G37*
G36*
G01*
X58650000Y-70985000D02*
X58650000Y-71285000D01*
G75*
G02*
X58500000Y-71435000I-150000J0D01*
G01*
X56850000Y-71435000D01*
G75*
G02*
X56700000Y-71285000I0J150000D01*
G01*
X56700000Y-70985000D01*
G75*
G02*
X56850000Y-70835000I150000J0D01*
G01*
X58500000Y-70835000D01*
G75*
G02*
X58650000Y-70985000I0J-150000D01*
G01*
G37*
G36*
G01*
X58650000Y-72255000D02*
X58650000Y-72555000D01*
G75*
G02*
X58500000Y-72705000I-150000J0D01*
G01*
X56850000Y-72705000D01*
G75*
G02*
X56700000Y-72555000I0J150000D01*
G01*
X56700000Y-72255000D01*
G75*
G02*
X56850000Y-72105000I150000J0D01*
G01*
X58500000Y-72105000D01*
G75*
G02*
X58650000Y-72255000I0J-150000D01*
G01*
G37*
%TD*%
D12*
%TO.C,J1*%
X145640000Y-65020000D03*
X145640000Y-59980000D03*
X143100000Y-65020000D03*
X143100000Y-59980000D03*
X140560000Y-65020000D03*
X140560000Y-59980000D03*
%TD*%
D20*
%TO.C,H21*%
X45000000Y-215000000D03*
%TD*%
%TO.C,H20*%
X45000000Y-206500000D03*
%TD*%
%TO.C,H19*%
X45000000Y-198000000D03*
%TD*%
%TO.C,H18*%
X45000000Y-189500000D03*
%TD*%
%TO.C,H17*%
X45000000Y-181000000D03*
%TD*%
%TO.C,H16*%
X45000000Y-172500000D03*
%TD*%
%TO.C,H15*%
X45000000Y-164000000D03*
%TD*%
%TO.C,H14*%
X45000000Y-155500000D03*
%TD*%
%TO.C,H13*%
X45000000Y-147000000D03*
%TD*%
%TO.C,H12*%
X45000000Y-138500000D03*
%TD*%
%TO.C,H11*%
X45000000Y-130000000D03*
%TD*%
%TO.C,H10*%
X45000000Y-121500000D03*
%TD*%
%TO.C,H9*%
X45000000Y-113000000D03*
%TD*%
%TO.C,H8*%
X45000000Y-104500000D03*
%TD*%
%TO.C,H7*%
X45000000Y-96000000D03*
%TD*%
%TO.C,H6*%
X45000000Y-87500000D03*
%TD*%
%TO.C,H5*%
X45000000Y-79000000D03*
%TD*%
%TO.C,H4*%
X45000000Y-70500000D03*
%TD*%
%TO.C,H3*%
X45000000Y-62000000D03*
%TD*%
%TO.C,H2*%
X45000000Y-53500000D03*
%TD*%
%TO.C,H1*%
X45000000Y-45000000D03*
%TD*%
D21*
%TO.C,D11*%
X60850000Y-113100000D03*
X64150000Y-113100000D03*
%TD*%
%TO.C,D10*%
X60850000Y-121200000D03*
X64150000Y-121200000D03*
%TD*%
%TO.C,D9*%
X60850000Y-96100000D03*
X64150000Y-96100000D03*
%TD*%
%TO.C,D8*%
X60850000Y-104200000D03*
X64150000Y-104200000D03*
%TD*%
%TO.C,D7*%
X60850000Y-79100000D03*
X64150000Y-79100000D03*
%TD*%
%TO.C,D6*%
X60850000Y-87200000D03*
X64150000Y-87200000D03*
%TD*%
%TO.C,D5*%
X60850000Y-62100000D03*
X64150000Y-62100000D03*
%TD*%
%TO.C,D4*%
X60850000Y-70200000D03*
X64150000Y-70200000D03*
%TD*%
%TO.C,D3*%
X73150000Y-88100000D03*
X69850000Y-88100000D03*
%TD*%
%TO.C,D2*%
X73150000Y-71100000D03*
X69850000Y-71100000D03*
%TD*%
D22*
%TO.C,D1*%
X65500000Y-201500000D03*
X69500000Y-201500000D03*
%TD*%
%TO.C,C13*%
G36*
G01*
X72100000Y-113250000D02*
X72100000Y-112150000D01*
G75*
G02*
X72350000Y-111900000I250000J0D01*
G01*
X74850000Y-111900000D01*
G75*
G02*
X75100000Y-112150000I0J-250000D01*
G01*
X75100000Y-113250000D01*
G75*
G02*
X74850000Y-113500000I-250000J0D01*
G01*
X72350000Y-113500000D01*
G75*
G02*
X72100000Y-113250000I0J250000D01*
G01*
G37*
G36*
G01*
X67700000Y-113250000D02*
X67700000Y-112150000D01*
G75*
G02*
X67950000Y-111900000I250000J0D01*
G01*
X70450000Y-111900000D01*
G75*
G02*
X70700000Y-112150000I0J-250000D01*
G01*
X70700000Y-113250000D01*
G75*
G02*
X70450000Y-113500000I-250000J0D01*
G01*
X67950000Y-113500000D01*
G75*
G02*
X67700000Y-113250000I0J250000D01*
G01*
G37*
%TD*%
%TO.C,C12*%
G36*
G01*
X72100000Y-96250000D02*
X72100000Y-95150000D01*
G75*
G02*
X72350000Y-94900000I250000J0D01*
G01*
X74850000Y-94900000D01*
G75*
G02*
X75100000Y-95150000I0J-250000D01*
G01*
X75100000Y-96250000D01*
G75*
G02*
X74850000Y-96500000I-250000J0D01*
G01*
X72350000Y-96500000D01*
G75*
G02*
X72100000Y-96250000I0J250000D01*
G01*
G37*
G36*
G01*
X67700000Y-96250000D02*
X67700000Y-95150000D01*
G75*
G02*
X67950000Y-94900000I250000J0D01*
G01*
X70450000Y-94900000D01*
G75*
G02*
X70700000Y-95150000I0J-250000D01*
G01*
X70700000Y-96250000D01*
G75*
G02*
X70450000Y-96500000I-250000J0D01*
G01*
X67950000Y-96500000D01*
G75*
G02*
X67700000Y-96250000I0J250000D01*
G01*
G37*
%TD*%
%TO.C,C11*%
G36*
G01*
X81850000Y-83100000D02*
X80750000Y-83100000D01*
G75*
G02*
X80500000Y-82850000I0J250000D01*
G01*
X80500000Y-80350000D01*
G75*
G02*
X80750000Y-80100000I250000J0D01*
G01*
X81850000Y-80100000D01*
G75*
G02*
X82100000Y-80350000I0J-250000D01*
G01*
X82100000Y-82850000D01*
G75*
G02*
X81850000Y-83100000I-250000J0D01*
G01*
G37*
G36*
G01*
X81850000Y-87500000D02*
X80750000Y-87500000D01*
G75*
G02*
X80500000Y-87250000I0J250000D01*
G01*
X80500000Y-84750000D01*
G75*
G02*
X80750000Y-84500000I250000J0D01*
G01*
X81850000Y-84500000D01*
G75*
G02*
X82100000Y-84750000I0J-250000D01*
G01*
X82100000Y-87250000D01*
G75*
G02*
X81850000Y-87500000I-250000J0D01*
G01*
G37*
%TD*%
%TO.C,C5*%
G36*
G01*
X102900000Y-200000000D02*
X104900000Y-200000000D01*
G75*
G02*
X105150000Y-200250000I0J-250000D01*
G01*
X105150000Y-203750000D01*
G75*
G02*
X104900000Y-204000000I-250000J0D01*
G01*
X102900000Y-204000000D01*
G75*
G02*
X102650000Y-203750000I0J250000D01*
G01*
X102650000Y-200250000D01*
G75*
G02*
X102900000Y-200000000I250000J0D01*
G01*
G37*
G36*
G01*
X102900000Y-192000000D02*
X104900000Y-192000000D01*
G75*
G02*
X105150000Y-192250000I0J-250000D01*
G01*
X105150000Y-195750000D01*
G75*
G02*
X104900000Y-196000000I-250000J0D01*
G01*
X102900000Y-196000000D01*
G75*
G02*
X102650000Y-195750000I0J250000D01*
G01*
X102650000Y-192250000D01*
G75*
G02*
X102900000Y-192000000I250000J0D01*
G01*
G37*
%TD*%
%TO.C,C4*%
G36*
G01*
X55900000Y-200000000D02*
X57900000Y-200000000D01*
G75*
G02*
X58150000Y-200250000I0J-250000D01*
G01*
X58150000Y-203750000D01*
G75*
G02*
X57900000Y-204000000I-250000J0D01*
G01*
X55900000Y-204000000D01*
G75*
G02*
X55650000Y-203750000I0J250000D01*
G01*
X55650000Y-200250000D01*
G75*
G02*
X55900000Y-200000000I250000J0D01*
G01*
G37*
G36*
G01*
X55900000Y-192000000D02*
X57900000Y-192000000D01*
G75*
G02*
X58150000Y-192250000I0J-250000D01*
G01*
X58150000Y-195750000D01*
G75*
G02*
X57900000Y-196000000I-250000J0D01*
G01*
X55900000Y-196000000D01*
G75*
G02*
X55650000Y-195750000I0J250000D01*
G01*
X55650000Y-192250000D01*
G75*
G02*
X55900000Y-192000000I250000J0D01*
G01*
G37*
%TD*%
M02*
