M48
; DRILL file {KiCad (5.1.9)-1} date 02/09/21 21:05:25
; FORMAT={-:-/ absolute / inch / decimal}
; #@! TF.CreationDate,2021-02-09T21:05:25+07:00
; #@! TF.GenerationSoftware,Kicad,Pcbnew,(5.1.9)-1
; #@! TF.FileFunction,Plated,1,2,PTH
FMAT,2
INCH
T1C0.0118
T2C0.0157
T3C0.0236
T4C0.0394
T5C0.1575
%
G90
G05
T1
X4.4173Y-3.6024
X4.4646Y-3.6142
X4.503Y-3.6171
X4.5669Y-3.4528
X4.5886Y-3.1122
X4.7087Y-2.8031
X4.7953Y-3.5354
X5.2047Y-2.8346
X5.2717Y-2.9409
X5.2992Y-2.8583
X5.3031Y-2.6772
T2
X1.9685Y-2.7008
X1.9685Y-2.752
X1.9685Y-2.7992
X1.9685Y-2.8504
X1.9685Y-3.3701
X1.9685Y-3.4213
X1.9685Y-3.4685
X1.9685Y-3.5197
X2.0079Y-2.7008
X2.0079Y-2.752
X2.0079Y-2.7992
X2.0079Y-2.8504
X2.0079Y-3.3701
X2.0079Y-3.4213
X2.0079Y-3.4685
X2.0079Y-3.5197
X2.0157Y-5.8346
X2.0276Y-6.2874
X2.0551Y-7.2598
X2.1772Y-4.4449
X2.1772Y-4.8268
X2.1772Y-5.7913
X2.185Y-3.7047
X2.185Y-4.0394
X2.1929Y-2.4173
X2.1929Y-2.4685
X2.1929Y-2.5157
X2.1929Y-3.0866
X2.1969Y-8.0669
X2.201Y-4.8585
X2.2047Y-4.4134
X2.2441Y-8.0669
X2.2874Y-8.0669
X2.3425Y-2.4646
X2.3425Y-2.5157
X2.3425Y-3.1339
X2.3425Y-3.185
X2.3425Y-3.2362
X2.3425Y-3.8031
X2.3425Y-3.8543
X2.3425Y-3.9055
X2.3425Y-4.0906
X2.3425Y-4.4724
X2.3425Y-4.7598
X2.3425Y-4.8071
X2.3425Y-4.8583
X2.3583Y-4.1693
X2.3583Y-4.2283
X2.378Y-6.2874
X2.4075Y-7.9311
X2.4094Y-6.7835
X2.4094Y-6.9488
X2.4094Y-7.0472
X2.4134Y-5.4449
X2.4134Y-5.6063
X2.4134Y-5.7126
X2.4134Y-5.7953
X2.6142Y-7.8287
X2.7441Y-7.2126
X2.7441Y-7.2638
X2.7441Y-7.315
X2.7441Y-7.3661
X2.7441Y-7.4173
X2.874Y-7.1142
X2.9252Y-7.1142
X2.9764Y-7.1142
X2.9921Y-3.7677
X2.9921Y-3.8622
X2.9921Y-3.9173
X2.9921Y-3.9724
X2.9961Y-2.4567
X3.0276Y-4.437
X3.0276Y-4.5551
X3.0276Y-4.6102
X3.0276Y-4.6654
X3.0276Y-7.1142
X3.0551Y-2.4567
X3.0787Y-7.1142
X3.122Y-2.4961
X3.122Y-3.1654
X3.1299Y-7.1142
X3.1732Y-2.2362
X3.1732Y-2.2835
X3.1732Y-2.3346
X3.1732Y-2.3858
X3.1732Y-2.8307
X3.1732Y-2.878
X3.1732Y-2.9291
X3.1732Y-2.9803
X3.1732Y-3.5
X3.1732Y-3.5472
X3.1732Y-3.5984
X3.1732Y-3.6496
X3.2008Y-7.6575
X3.2008Y-7.7126
X3.2008Y-7.7677
X3.2283Y-2.2362
X3.2283Y-2.2835
X3.2283Y-2.3346
X3.2283Y-2.3858
X3.2283Y-2.8307
X3.2283Y-2.878
X3.2283Y-2.9291
X3.2283Y-2.9803
X3.2283Y-3.5
X3.2283Y-3.5472
X3.2283Y-3.5984
X3.2283Y-3.6496
X3.2717Y-7.2126
X3.2717Y-7.2638
X3.2717Y-7.315
X3.2717Y-7.3661
X3.2717Y-7.4173
X3.2756Y-2.4961
X3.2756Y-3.1654
X4.0472Y-8.0669
X4.0472Y-8.1142
X4.0945Y-8.0669
X4.0945Y-8.1142
X4.1339Y-3.2205
X4.1339Y-3.2638
X4.1339Y-3.3071
X4.185Y-3.0669
X4.2638Y-3.8819
X4.2874Y-3.4173
X4.3071Y-2.8386
X4.3819Y-7.8307
X4.5315Y-2.622
X4.5984Y-3.7992
X4.874Y-2.5315
X4.9449Y-3.7638
X5.0512Y-3.7992
X5.0709Y-2.5315
X5.3346Y-3.7126
X5.4803Y-2.8937
X5.5472Y-2.1811
X5.5669Y-3.3228
X5.622Y-3.0787
X5.6339Y-2.2598
X5.8661Y-2.185
T3
X2.1772Y-7.122
X2.4626Y-5.9193
X5.3898Y-3.622
X5.3898Y-4.0197
T4
X2.6102Y-3.7677
X2.6102Y-4.437
X3.0236Y-2.815
X3.0236Y-3.4882
T5
X1.7717Y-1.7717
X1.7717Y-2.1063
X1.7717Y-2.4409
X1.7717Y-2.7756
X1.7717Y-3.1102
X1.7717Y-3.4449
X1.7717Y-3.7795
X1.7717Y-4.1142
X1.7717Y-4.4488
X1.7717Y-4.7835
X1.7717Y-5.1181
X1.7717Y-5.4528
X1.7717Y-5.7874
X1.7717Y-6.122
X1.7717Y-6.4567
X1.7717Y-6.7913
X1.7717Y-7.126
X1.7717Y-7.4606
X1.7717Y-7.7953
X1.7717Y-8.1299
X1.7717Y-8.4646
T0
M30
